<?xml version="1.0" encoding="utf-8"?>
<!-- Generator: Adobe Illustrator 24.1.0, SVG Export Plug-In . SVG Version: 6.00 Build 0)  -->
<svg version="1.1" id="Layer_1" xmlns="http://www.w3.org/2000/svg" xmlns:xlink="http://www.w3.org/1999/xlink" x="0px" y="0px"
	 viewBox="0 0 1078.7 143.9" style="enable-background:new 0 0 1078.7 143.9;" xml:space="preserve">
<style type="text/css">
	.st0{clip-path:url(#SVGID_1_);fill-rule:evenodd;clip-rule:evenodd;fill:#C91517;}
</style>
<g>
	<defs>
		<rect id="SVGID_3_" width="143.9" height="143.9"/>
	</defs>
	<clipPath id="SVGID_1_">
		<use xlink:href="#SVGID_3_"  style="overflow:visible;"/>
	</clipPath>
	<path class="st0" d="M47.8,85.4c-5.5-4.6-2.9-0.2-2,1.4c3,5.6,5.7,10.7,8.5,16c2.1,4.1,4.2,8.3,6.4,13c1.6,2.8,3.5,3,4.5,2.9
		c4.4-0.4,7.9-1.1,12.5-2.4c1-0.3,3.8-0.7,0.2-3.8c-6-5.3-10.3-9.1-14.5-12.8C58.7,95.4,54.6,91.3,47.8,85.4 M16.4,82.1
		c-4.5-4.1-2.6,0.4-1.9,2.4c2.4,6.8,5.4,12.4,9.3,18c7.7,10.3,17,17.4,29.5,16.3c3.5,0,1.7-1.9,0.3-3.1C40.9,104.7,29,93,16.4,82.1
		 M127.7,133.5c2.2,2.5,3.1,0.8,3.3-0.5c1.4-9.2,0.9-18.3-4.6-27.5c-1.2-1.9-2.5-3.3-4-4.9L48.7,23.7c-3.2-3.4-9.2-8.6-3.3-0.7
		c11.4,15.4,21.6,29,31.4,42.2C93.1,87.1,108.7,107.8,127.7,133.5 M56.6,73.1c9.3,12.9,18.6,26,28.2,39.5c1,1.7,2.7,2.5,4.1,2.8
		c1,0.3,2,0.1,3,0c3-0.3,5.2-0.6,10.7-0.6c1.8,0.2,2.8-0.2,0.8-2.4C89.7,96.9,80.5,84.8,66.4,68.5c-28.9-33.4-38.8-43-48-53.3
		c-4-4.4-6.1-6.5-6.2-6c-0.2,0.7,1.6,3.5,7.6,12.2C26.2,30.6,37.5,46.4,56.6,73.1 M121.9,92.2c0.9,1.6,2.2,0.9,2-0.2
		c0-6.4,0.9-9.8,1.1-14.1c0.1-1-0.2-3.7-2.4-5.5c-3-3-5.7-5.6-8.3-8.1c-5-4.8-9.7-9.1-15.4-14.3c-1.6-1.5-2.7-1.2-1.6,1.5
		c5.1,8.7,8.9,14.5,12.5,20.8C112.9,77.8,117.7,84.3,121.9,92.2 M123,64.1c1.6,2.3,2.3,1,2.4-0.6c0.3-6.2-0.6-13.7-5.8-23.6
		c-4.4-8.4-11.9-17.3-24.3-24.9c-1.2-0.8-3.4-1.5-1.9,0.7L123,64.1z"/>
</g>
<g>
	<path d="M156.4,104V48h9.8v23.3h26.7V48h9.8v56h-9.8V80.4h-26.7V104H156.4z"/>
	<path d="M212.4,104L237,47.6h9.1l24.6,56.4h-10.4l-5.7-13.5h-26.5l-5.8,13.5H212.4z M231.8,81.8h19.3l-9.7-22.4L231.8,81.8z"/>
	<path d="M302.9,105c-8.1,0-14.9-2.8-20.3-8.3s-8.2-12.4-8.2-20.5V76c0-8.1,2.7-15,8.2-20.6s12.3-8.4,20.7-8.4c4.9,0,9,0.7,12.4,2.2
		c3.4,1.5,6.6,3.7,9.6,6.5l-6.3,7.3c-5-4.6-10.2-7-15.7-7c-5.3,0-9.7,1.9-13.2,5.7c-3.5,3.8-5.3,8.5-5.3,14V76
		c0,5.5,1.8,10.3,5.3,14.1c3.5,3.9,7.9,5.8,13.2,5.8c3.2,0,6-0.6,8.5-1.8s5-3,7.6-5.5l6.3,6.4c-3.1,3.3-6.5,5.8-10,7.4
		C312.1,104.1,307.9,105,302.9,105z"/>
	<path d="M336,104V48h9.8v28.2L372.4,48h12.1l-23.3,24.1l24.3,31.9h-11.9l-19.1-25.2l-8.7,9V104H336z"/>
	<path d="M394.5,104V48h9.8v56H394.5z"/>
	<path d="M419.3,104V48h9.1l30,38.7V48h9.7v56h-8.2L429,64.2V104H419.3z"/>
	<path d="M509.1,105c-8.6,0-15.6-2.7-21-8.2c-5.4-5.5-8-12.3-8-20.6V76c0-8,2.7-14.8,8.2-20.5c5.5-5.7,12.4-8.5,20.7-8.5
		c4.7,0,8.7,0.6,12,1.9c3.3,1.3,6.5,3.2,9.5,5.7l-6.2,7.4c-2.3-2-4.7-3.5-7.1-4.5c-2.4-1-5.2-1.5-8.6-1.5c-5.1,0-9.4,1.9-12.9,5.8
		c-3.5,3.9-5.2,8.5-5.2,14V76c0,5.8,1.8,10.6,5.3,14.4c3.5,3.8,8.1,5.6,13.8,5.6c5.2,0,9.7-1.4,13.5-4.2V81.3h-14.3v-8.6h23.8v23.5
		C525.7,102.1,517.9,105,509.1,105z"/>
	<path d="M585.6,104.4l-20-56.4h6.9l16,46.6l15.4-46.8h5.2l15.4,46.8l16-46.6h6.6l-20,56.4h-5.4L606.4,59l-15.4,45.4H585.6z"/>
	<path d="M659.1,104V48h6.3v56H659.1z"/>
	<path d="M696.6,104V53.8h-18.8V48h44v5.8H703V104H696.6z"/>
	<path d="M733.6,104V48h6.3v24.9h32.3V48h6.3v56h-6.3V78.8H740V104H733.6z"/>
	<path d="M837.3,104.8c-8.9,0-16.7-3-23.4-9l5.9-7c5.6,4.9,11.5,7.3,17.7,7.3c3,0,5.5-0.6,7.2-1.9c1.8-1.3,2.7-3,2.7-5.1v-0.2
		c0-2.1-0.9-3.7-2.6-5c-1.7-1.2-5.1-2.4-10.1-3.6c-3.2-0.8-5.9-1.6-8-2.4c-2.1-0.8-4.1-1.8-5.8-3.1c-1.7-1.3-2.9-2.8-3.7-4.7
		c-0.8-1.8-1.2-4-1.2-6.5v-0.2c0-4.8,1.8-8.7,5.4-11.7c3.6-3,8.2-4.5,13.8-4.5c7.7,0,14.5,2.3,20.3,7l-5.3,7.4
		c-5.2-3.8-10.2-5.8-15.2-5.8c-2.8,0-5,0.6-6.6,1.9c-1.7,1.3-2.5,2.8-2.5,4.8v0.2c0,2.2,0.9,3.9,2.7,5.1c1.8,1.2,5.3,2.4,10.6,3.7
		c6.2,1.5,10.7,3.5,13.6,6c2.9,2.5,4.4,6,4.4,10.4v0.2c0,5.2-1.8,9.3-5.5,12.2C848.1,103.3,843.3,104.8,837.3,104.8z"/>
	<path d="M882.1,104.4L862.6,48h10.6l13.4,41.5l13.8-41.7h8.3l13.8,41.7L935.8,48h10.3l-19.5,56.4h-8.5l-13.8-40.2l-13.8,40.2H882.1
		z"/>
	<path d="M956.8,104V48h9.8v56H956.8z"/>
	<path d="M981.5,104V48h41.7v9h-31.8v15.3h28.2v9h-28.2V104H981.5z"/>
	<path d="M1047.8,104V57.1H1030V48h45.4v9.1h-17.8V104H1047.8z"/>
</g>
</svg>
