<svg xmlns="http://www.w3.org/2000/svg" width="512" height="512"><g transform="translate(59 85)"><path d="M 85.79 11.715 L 196.603 0 L 307.415 11.715 L 393.206 126.881 L 196.603 355.823 L 0 126.881 Z" fill="rgb(253,179,0)"></path><g transform="translate(0 126.881)"><path d="M 79.634 0 L 196.603 228.942 L 0 0 Z" fill="rgb(234,108,0)"></path><path d="M 313.571 0 L 196.602 228.942 L 393.205 0 Z" fill="rgb(234,108,0)"></path><path d="M 79.634 0 L 313.572 0 L 196.603 228.942 Z" fill="rgb(253,173,0)"></path></g><g><path d="M 196.603 0 L 85.79 11.715 L 79.634 126.881 Z" fill="rgb(253,210,49)"></path><path d="M 196.602 0 L 307.415 11.715 L 313.571 126.881 Z" fill="rgb(253,210,49)"></path><path d="M 393.206 126.881 L 307.415 11.715 L 313.572 126.881 Z" fill="rgb(253,173,0)"></path><path d="M 0 126.881 L 85.79 11.715 L 79.634 126.881 Z" fill="rgb(253,173,0)"></path><path d="M 196.603 0 L 79.634 126.881 L 313.572 126.881 Z" fill="rgb(254,238,183)"></path></g></g></svg>