<?xml version="1.0" encoding="UTF-8"?>
<!-- Generator: Adobe Illustrator 12.0.0, SVG Export Plug-In . SVG Version: 6.00 Build 51448)  -->
<!DOCTYPE svg PUBLIC "-//W3C//DTD SVG 1.1//EN" "http://www.w3.org/Graphics/SVG/1.1/DTD/svg11.dtd">
<svg version="1.1" id="Layer_1" xmlns="http://www.w3.org/2000/svg" xmlns:xlink="http://www.w3.org/1999/xlink" width="9.439" height="11.496" viewBox="0 0 9.439 11.496" overflow="visible" enable-background="new 0 0 9.439 11.496" xml:space="preserve">
<g>
	<path fill="#2D393A" d="M5.086,5.846c0.061-0.027,0.142-0.072,0.25-0.145L5.086,5.846z"/>
	<path fill="#2D393A" d="M0.845,5.75l0.029-0.199C0.704,5.761,0.819,5.702,0.845,5.75"/>
</g>
<g>
	<path fill="#2D393A" d="M2.522,6.55C2.502,6.529,2.481,6.514,2.46,6.512C2.475,6.559,2.503,6.57,2.522,6.55"/>
	<path fill="#2D393A" d="M2.348,6.736C2.336,6.693,2.323,6.673,2.307,6.659C2.317,6.703,2.331,6.736,2.348,6.736"/>
	<path fill="#2D393A" d="M4.573,6.832c0.014,0.057,0.148,0.141,0.135-0.044C4.647,6.788,4.594,6.792,4.573,6.832"/>
	<path fill="#2D393A" d="M4.975,6.713C4.989,6.738,5.008,6.768,5.034,6.8C5.032,6.805,5.032,6.811,5.03,6.814L4.905,6.761   C4.93,6.751,4.952,6.736,4.975,6.713 M4.454,6.663L4.356,6.725C4.264,6.669,4.299,6.607,4.381,6.546l0.023,0.132   c-0.002-0.044-0.01-0.089-0.02-0.134c0.023-0.019,0.051-0.034,0.08-0.051L4.454,6.663z M2.297,6.539   c0.002-0.032,0.006-0.063,0.016-0.077c0.004-0.006,0.01-0.006,0.016-0.005C2.323,6.492,2.315,6.518,2.297,6.539 M2.155,6.591   c-0.018,0-0.033,0.001-0.053,0c0.018-0.028,0.035-0.06,0.053-0.088C2.157,6.541,2.157,6.566,2.155,6.591 M1.874,6.563   c-0.004-0.05-0.008-0.097,0-0.127c0.023-0.012,0.047-0.021,0.07-0.029c0.004,0.001,0.006,0,0.012,0.002   c0.029,0.072,0.01,0.113-0.01,0.164C1.921,6.568,1.897,6.564,1.874,6.563 M1.776,6.553l0.049-0.097   c0.004-0.002,0.008-0.003,0.012-0.005c0.004,0.04,0.004,0.074,0.004,0.105C1.819,6.555,1.797,6.554,1.776,6.553 M1.417,6.501V6.445   C1.431,6.453,1.44,6.463,1.448,6.475C1.438,6.482,1.426,6.493,1.417,6.501 M0.551,5.193L0.551,5.193   c0,0.066-0.002,0.135-0.002,0.198C0.549,5.331,0.551,5.263,0.551,5.193 M0.569,3.987C0.567,4.021,0.567,4.056,0.567,4.091   C0.567,4.056,0.567,4.021,0.569,3.987 M0.583,3.982c-0.002,0-0.006,0.001-0.008,0.002C0.577,3.983,0.581,3.982,0.583,3.982    M3.825,3.612c0.018,0.086,0.49,0.006,0.012,0.239c0.264-0.057,0.449,0.001,0.598,0.088C4.347,3.953,4.259,3.97,4.173,3.996   c-0.051-0.003-0.098,0-0.143,0.007C4.005,3.982,3.975,3.97,3.938,3.969c-0.002-0.034,0-0.065,0.031-0.088   c-0.09,0.008-0.184,0.02-0.273,0.032C3.698,3.909,3.702,3.906,3.704,3.9C3.686,3.906,3.673,3.911,3.663,3.917   c-0.133,0.017-0.258,0.03-0.367,0.02C3.551,3.877,3.776,3.795,3.825,3.612"/>
	<path fill="#2D393A" d="M8.78,7.352c0.002,0.006,0.008,0.015,0.018,0.022C8.797,7.366,8.79,7.357,8.78,7.352"/>
	<path fill="#2D393A" d="M8.922,10.02c-0.033,0.058-0.074,0.008,0.025,0.051c0-0.008,0.002-0.012,0.004-0.019   C8.944,10.045,8.935,10.038,8.922,10.02"/>
	<path fill="#2D393A" d="M8.952,10.051C8.987,10.079,8.967,9.993,8.952,10.051"/>
	<path fill="#2D393A" d="M6.639,11.122c0.007,0.003,0.011,0.004,0.017,0.007c-0.004-0.005-0.01-0.012-0.014-0.018L6.639,11.122z"/>
	<path fill="#2D393A" d="M5.354,5.561c-0.07-0.029-0.15-0.065-0.234-0.134l0.035-0.032C5.214,5.45,5.284,5.504,5.354,5.561    M5.639,5.834C5.629,5.829,5.621,5.825,5.61,5.816c-0.002-0.01-0.006-0.019-0.008-0.027C5.614,5.803,5.628,5.818,5.639,5.834    M2.053,6.451C1.975,6.423,1.908,6.327,1.848,6.205C1.921,6.266,1.991,6.345,2.053,6.451 M6.819,7.255   c-0.002,0.007-0.002,0.017,0,0.028C6.809,7.29,6.797,7.295,6.784,7.299C6.69,7.212,6.622,7.137,6.577,7.072L6.819,7.255z    M4.88,8.328C4.86,8.325,4.839,8.32,4.818,8.316C4.673,8.175,4.531,8.031,4.396,7.885C4.667,8.074,4.712,8.167,4.88,8.328    M7.829,8.605C7.858,8.645,7.891,8.688,7.922,8.73C7.844,8.677,7.769,8.635,7.702,8.619C7.629,8.521,7.526,8.454,7.481,8.327   C7.569,8.29,7.689,8.43,7.829,8.605 M5.739,8.936c-0.104-0.041-0.031,0.058,0.02,0.139C5.681,9.051,5.6,9.025,5.518,8.986   c-0.084-0.08-0.176-0.166-0.27-0.254c0.037-0.006,0.076-0.021,0.111-0.045C5.485,8.748,5.616,8.834,5.739,8.936 M7.605,8.605   c0.004,0.002,0.006,0.006,0.012,0.01C7.611,8.616,7.605,8.616,7.601,8.618C7.603,8.615,7.603,8.611,7.605,8.605 M6.002,8.54   c0.006,0.002,0.01,0.002,0.015,0.005c0,0.002,0,0.003,0,0.005C6.012,8.546,6.008,8.543,6.002,8.54 M5.987,8.525   c-0.006-0.004-0.012-0.01-0.018-0.015C5.977,8.503,5.985,8.498,5.992,8.49c0.011,0.012,0.021,0.022,0.029,0.035   C6.01,8.525,5.999,8.525,5.987,8.525 M5.887,8.443c0.017-0.01,0.027-0.021,0.035-0.03c0.015,0.013,0.025,0.024,0.035,0.038   C5.956,8.465,5.954,8.479,5.95,8.495C5.928,8.477,5.909,8.46,5.887,8.443 M8.325,9.432C8.307,9.413,8.288,9.396,8.268,9.379   l0.008-0.006L8.325,9.432z M6.336,9.439c-0.01-0.012-0.018-0.021-0.024-0.03c0.002,0,0.006,0.001,0.01,0.001L6.336,9.439z    M7.969,10.445c0.025,0.021,0.045,0.035,0.06,0.049l0.021,0.033c0,0,0,0-0.002,0.002c-0.017-0.006-0.035-0.014-0.062-0.026   l-0.028-0.058C7.959,10.445,7.963,10.445,7.969,10.445 M7.915,10.504c-0.021-0.034-0.018-0.052,0.004-0.059   c-0.008,0.02-0.018,0.029,0.008,0.062c-0.006,0.004,0,0.017,0.021,0.039C7.889,10.506,7.862,10.486,7.915,10.504 M8.767,11.143   c0.014,0.02,0.022,0.035,0.036,0.055C8.76,11.154,8.739,11.13,8.767,11.143 M6.689,10.79L6.66,10.795   c-0.004-0.004-0.01-0.009-0.016-0.014c0.019,0.001,0.034,0,0.051-0.006C6.691,10.779,6.691,10.785,6.689,10.79 M0.999,5.438   l0.137,0.239C1.111,5.615,1.105,5.574,1.116,5.55c0.094,0.089,0.182,0.175,0.26,0.257C1.364,5.813,1.353,5.824,1.345,5.836   C1.382,5.85,1.441,5.891,1.497,5.939C1.454,5.932,1.423,5.929,1.423,5.953c0.004,0.023,0.066,0.044,0.154,0.084L1.542,6.242   l0.07-0.023l0.424,0.592c0.367,0.198,0.742,0.332,1.182,0.621c0.057,0.068,0.115,0.137,0.178,0.2c-0.055,0-0.143-0.108-0.193-0.196   c0.061,0.135,0.143,0.252,0.238,0.36C3.418,7.841,3.404,7.9,3.353,7.943C3.298,7.68,2.859,7.542,2.58,7.218   C2.726,7.386,2.642,7.4,2.586,7.376l0.633,0.438c-0.096,0.072,0.053,0.177,0.16,0.35c0.057-0.271,0.51,0.286,0.783,0.443   c-0.039,0.068-0.15,0.08-0.406-0.196c0.176,0.416,0.576,0.173,0.768,0.562C4.456,8.91,4.428,8.868,4.374,8.871   c0.203,0.098,0.547,0.496,0.412,0.461L4.716,9.27C4.792,9.345,4.88,9.432,4.98,9.521c0.055,0.16,0.102,0.289,0.145,0.224   l0.018-0.072C5.288,9.802,5.44,9.934,5.588,10.05c0.092,0.071,0.18,0.136,0.262,0.192c0.002,0.008,0.004,0.015,0.004,0.023   c0.063,0.008,0.189,0.115,0.33,0.229c-0.064,0.032-0.137,0.062-0.166,0.065c0,0,0.139,0.025,0.32,0.059   c0.115,0.085,0.225,0.152,0.309,0.158c0.004,0.006,0.008,0.011,0.012,0.016l-0.438,0.061c0.24,0.043,0.32,0.135,0.426,0.258   L6.7,10.85c0.088,0.116,0.182,0.226,0.297,0.299c-0.072,0.061-0.174,0.074-0.338-0.021c0.086,0.104,0.191,0.229,0.418,0.369   l0.646-0.678c-0.018-0.012-0.039-0.027-0.061-0.045c0.01,0.021,0.018,0.053,0.018,0.086l-0.566,0.593   c-0.002-0.023-0.002-0.048,0-0.072l0.006,0.003l0.109-0.113c0.008,0.021,0.014,0.037,0.006,0.041l0.309-0.324   c-0.004-0.014-0.008-0.022-0.012-0.034l0.078-0.083l-0.119-0.034c-0.049-0.125-0.08-0.16-0.158-0.322   c0.021,0.005,0.041,0.009,0.066,0.019c-0.027-0.014-0.051-0.025-0.074-0.036C7.303,10.451,7.28,10.4,7.252,10.338   c0.025,0.045,0.004,0.08-0.037,0.104c-0.125-0.063-0.196-0.108-0.26-0.147c0.057-0.052,0.121-0.112,0.168-0.087L6.538,9.962   c0.133,0.074,0.178-0.133,0.146-0.278c0.002,0.051-0.136-0.107-0.267-0.258c0.045,0.01,0.104,0.023,0.18,0.045l0.043,0.141   c0.187,0.039,0.22,0.02,0.552,0.226c-0.306-0.125,0.125,0.25-0.226,0.122c0.562,0.633,1.105,0.542,1.265,0.979   c0.014,0,0.021,0,0.026,0v-0.002v-0.002v0.002l0.025-0.006c-0.012,0.004-0.016,0.006-0.025,0.008v0.026   c0.232,0.181,0.479,0.279,0.593,0.435l0.59-0.554c-0.041-0.062-0.056-0.133-0.063-0.219c-0.127-0.028-0.134,0.015-0.099,0.084   c-0.106-0.112-0.219-0.228-0.334-0.338c-0.022-0.123-0.065-0.267-0.155-0.431l0.073-0.002c0.017-0.037-0.017-0.078,0.019-0.086   C8.817,9.837,8.799,9.87,8.783,9.93C8.756,9.881,8.726,9.831,8.689,9.777c0.037,0.057,0.055,0.051,0.09,0.104   C8.715,9.707,8.566,9.598,8.451,9.434l0.021-0.008L8.45,9.434C8.42,9.391,8.393,9.342,8.37,9.289l0.107-0.104   c-0.01-0.01-0.018-0.02-0.027-0.029c-0.008-0.024-0.012-0.051-0.012-0.08c-0.023-0.002-0.057-0.02-0.096-0.042   C8.285,8.97,8.233,8.913,8.197,8.887l0.041,0.075C8.199,8.932,8.156,8.9,8.113,8.866C7.99,8.738,7.875,8.634,8.04,8.654   C7.881,8.626,7.792,8.516,7.704,8.383c0.002,0,0.002,0.001,0.004,0.001c-0.002,0-0.004-0.001-0.004-0.002   C7.592,8.214,7.482,8.009,7.247,7.876l0.104-0.045c-0.052-0.039-0.147-0.108-0.229-0.19C7.116,7.631,7.11,7.62,7.099,7.604   c0.021,0.01,0.067,0.025,0.112,0.043C7.278,7.67,7.34,7.695,7.34,7.695C7.262,7.643,7.198,7.579,7.146,7.507   c0.045,0.035,0.086,0.072,0.108,0.097l-0.207-0.25c-0.1-0.178-0.18-0.367-0.336-0.5c0.195,0.238,0.228,0.313,0.205,0.342   L6.731,6.968C6.694,7.021,6.596,6.973,6.489,6.902C6.413,6.686,6.495,6.529,6.083,6.083c0.084,0.104,0.18,0.287,0.123,0.285   L6.149,6.339C6.04,6.18,5.907,5.961,5.872,5.833c-0.29-0.295-0.217-0.158-0.184-0.058c-0.165-0.138-0.301-0.24-0.471-0.398   l0.006-0.006c-0.42-0.564-0.314,0.002-0.725-0.549l0.309,0.095l-0.279-0.23L4.669,4.65c-0.34-0.211-0.402-0.32-0.652-0.608   c0.008,0.118-0.178,0.109-0.422-0.12C3.476,3.715,3.761,3.934,3.407,3.615C3.501,3.633,3.61,3.648,3.69,3.752L3.561,3.671   l0.064,0.062l0.084,0.049c0.018,0.026,0.033,0.057,0.047,0.095c0.033-0.009,0.098,0.012,0.141,0.014l0.141,0.08L3.909,3.89   c0.004,0,0.01,0.001,0.014,0C3.796,3.664,3.487,3.442,3.359,3.328c0.047,0.048,0.102,0.106,0.119,0.146   c0,0-0.152-0.091-0.307-0.178C3.107,3.259,3.046,3.224,2.993,3.193l-2.119,2.12C0.913,5.352,0.956,5.395,0.999,5.438"/>
</g>
<g>
	<path fill="#2D393A" d="M0.772,5.751C0.711,5.777,0.63,5.822,0.522,5.896L0.772,5.751z"/>
	<path fill="#2D393A" d="M5.012,5.848L4.983,6.046C5.154,5.835,5.039,5.895,5.012,5.848"/>
</g>
<path fill="#2D393A" d="M8.767,0.474L8.76,0.469L8.767,0.474z"/>
<g>
	<path fill="#2D393A" d="M8.65,1.824C8.667,1.81,8.676,1.798,8.687,1.785C8.676,1.797,8.665,1.81,8.65,1.824 M7.558,2.913   C7.555,2.908,7.555,2.902,7.551,2.897l0.07-0.035L7.558,2.913z M6.706,4.036C6.752,3.932,6.831,3.792,6.827,3.71l0.119-0.064   C6.857,3.828,6.754,3.96,6.706,4.036 M6.607,0.894c-0.06-0.011-0.104,0.015-0.146,0.054C6.465,0.931,6.473,0.911,6.49,0.887   c0.048,0.025,0.074-0.081,0.14-0.015L6.607,0.894z M6.583,3.928C6.579,3.925,6.577,3.917,6.577,3.907   C6.594,3.893,6.61,3.881,6.625,3.866L6.583,3.928z M6.275,4.263c-0.004,0-0.011,0-0.017,0.001c0.023-0.045,0.052-0.095,0.08-0.146   C6.4,4.062,6.463,4.008,6.525,3.953C6.491,4.044,6.4,4.166,6.275,4.263 M6.543,0.816L6.564,0.83   C6.547,0.841,6.535,0.844,6.519,0.846C6.528,0.835,6.534,0.826,6.543,0.816 M6.058,1.103C6.023,1.11,5.999,1.139,5.984,1.171   L5.853,1.292C5.838,1.299,5.826,1.31,5.81,1.317c0.065-0.086,0.166-0.223,0.254-0.219L6.058,1.103z M3.316,7.506   c0.011-0.021,0.019-0.033,0.019-0.033c0.041-0.021,0.061-0.02,0.068-0.004C3.382,7.473,3.353,7.484,3.316,7.506 M9.387,1.134   c-0.108,0.022-0.231,0.06-0.112-0.123C9.285,1.002,9.29,0.997,9.29,0.997c0-0.003-0.002-0.004-0.005-0.005l0,0   c0,0-0.004-0.004-0.006-0.006L9.254,0.961c0,0,0.018,0.019,0.024,0.025l0.006,0.006c0.003,0.001,0.015,0.014,0.015,0.014   s0.02-0.021,0.028-0.03C9.326,0.973,9.322,1.023,9.318,1.02c0-0.001-0.002,0.049-0.004,0.049h0.002c0,0,0.002-0.051,0.002-0.049   C9.32,1.019,9.316,0.992,9.316,0.992l-0.008-0.02V0.967c0,0.001,0.006,0,0.008,0.001c0.002,0.003,0.01,0.005,0.012,0.008   C9.331,0.975,9.334,0.97,9.334,0.97L8.797,0.454C8.795,0.457,8.768,0.475,8.766,0.475L8.77,0.478c0,0,0.002,0,0,0l0,0   c0-0.001-0.002-0.003-0.002-0.004c-0.002,0-0.002,0-0.002,0L8.762,0.47l0.004,0.004c0,0,0.014-0.012,0.008-0.009   C8.756,0.47,8.77,0.449,8.782,0.432c-0.006-0.005-0.006-0.013-0.01-0.018L8.704,0.518c0,0.001,0,0.001-0.002,0.001v0.002   c-0.047,0.034-0.1,0.068-0.152,0.104C8.547,0.568,8.618,0.451,8.713,0.346c-0.02-0.021-0.041-0.043-0.061-0.063   C8.475,0.326,8.499,0.45,8.344,0.633L7.641,0L7.573,0.069c-0.09,0.06-0.107,0.025-0.051-0.028L7.34,0.185   C7.333,0.178,7.324,0.173,7.319,0.166c0.006,0.011,0.008,0.02,0.01,0.027l-0.076,0.06c-0.094,0.005-0.235-0.017-0.18,0.142   l-0.014,0.01C7.053,0.401,7.047,0.396,7.043,0.39c0.012-0.03,0.01-0.043-0.017-0.027C7.019,0.348,7.01,0.335,6.994,0.325   c0.048,0.089,0.035,0.133-0.049,0.159L6.933,0.463c-0.06,0.081-0.121,0.124-0.189,0.162C6.305,0.594,6.551,0.881,5.846,1.184   l0.26-0.245C5.815,0.933,5.633,1.153,5.248,1.313C5.355,1.3,6.006,1.06,5.801,1.327C5.656,1.415,5.5,1.534,5.384,1.653   C5.305,1.625,5.164,1.761,4.982,1.91L4.905,1.782C4.704,1.998,4.768,2.044,4.676,2.201C4.414,2.392,4.289,2.346,4.168,2.317   c-0.42,0.308,0.395-0.082-0.065,0.326C3.736,2.875,3.536,3.111,3.202,3.512C2.938,3.669,3.183,3.408,3.073,3.447L2.945,3.711   C2.894,3.751,2.887,3.71,2.883,3.689C2.74,3.87,2.965,3.814,2.722,4.074c0.034,0.184-0.703,0.298-0.911,0.727   C1.704,4.841,1.79,4.697,1.727,4.677C1.405,5.113,1.399,5.101,1.226,5.403C1.2,5.43,1.17,5.461,1.143,5.488l2.119,2.119   C3.27,7.594,3.28,7.577,3.285,7.564C3.291,7.62,3.36,7.604,3.344,7.689L3.354,7.7c0.048-0.085,0.1-0.175,0.09-0.212   c0.045-0.077,0.086-0.16,0.174-0.268c0.032,0.1,0.111,0.151-0.055,0.396c0,0,0.094-0.139,0.186-0.277   c0.095-0.139,0.182-0.281,0.182-0.281c0.027-0.004,0.1-0.048,0.164-0.082L4.046,7.052L4.13,6.98L4.128,6.959   c0.051-0.023,0.088-0.035,0.074,0c0.141-0.121,0.254-0.32,0.379-0.53C4.702,6.218,4.829,5.992,5.01,5.826   c0.002-0.03,0.021-0.081,0.075-0.169c0.172-0.191,0.352-0.36,0.516-0.563L5.61,5.107L5.646,5.04   c0.045-0.057,0.088-0.118,0.131-0.184l0.052-0.013C5.913,4.746,5.9,4.724,5.859,4.721c0.028-0.055,0.06-0.11,0.086-0.17   l0.154-0.075c0,0.043,0.02,0.079,0.057,0.105C6.131,4.602,6.131,4.622,6.18,4.658c0.015-0.012,0.027-0.025,0.041-0.04   c0.104,0.04,0.255,0.046,0.396,0.021C6.594,4.605,6.569,4.577,6.739,4.333C6.647,4.364,6.315,4.613,6.293,4.54   c0.053-0.058,0.104-0.118,0.158-0.164C6.401,4.431,6.35,4.469,6.301,4.497C6.305,4.49,6.308,4.483,6.312,4.474   c0.243-0.306,0.25-0.2,0.418-0.298C6.678,4.184,6.67,4.155,6.685,4.107c0.01,0.012,0.055,0.001,0.146-0.035   c-0.115-0.165,0.28-0.486,0.541-0.768l0.006,0.002v-0.01c0.135-0.146,0.227-0.28,0.188-0.373l0.049-0.029l0.055-0.049L7.76,2.799   C7.713,2.839,7.717,2.86,7.67,2.9c0.115-0.051,0.17-0.103,0.201-0.16c0.033,0.034,0.066,0.068,0.1,0.103   c-0.01,0.006-0.026,0.02-0.045,0.034c0.015,0.001,0.033-0.006,0.062-0.02C7.994,2.863,8,2.868,8.006,2.874L8.008,2.87   c0,0.001,0.031,0.027,0.029,0.027C8.031,2.896,8.042,2.908,8.035,2.906C8.019,2.901,8.008,2.902,7.988,2.897   c-0.03-0.01-0.055-0.016-0.063-0.018c0,0.001-0.002,0.001-0.002,0.002c0.004,0.001,0.037,0.01,0.071,0.021   c0.021,0.006,0.037,0.011,0.052,0.015c0.004,0.002,0.004,0.002,0.006,0.002l0.002-0.004c0,0,0.008,0.006,0.006,0.005   C8.055,2.919,8.053,2.919,8.051,2.919l-0.06,0.059c0,0-0.057-0.056-0.062-0.062C7.922,2.908,7.899,2.912,7.889,2.907   C7.897,2.902,7.91,2.892,7.922,2.883c0-0.001-0.002-0.001-0.002-0.001C7.775,2.974,7.637,3.076,7.635,3.215L7.91,3.08   C7.75,3.338,7.598,3.7,7.305,3.926c0.217-0.018,0.049-0.071,0.35-0.137C7.35,3.803,8.327,3.138,7.918,3.239   C8.06,3.217,8.151,3.162,8.241,3.097L7.883,2.723c0.021-0.049,0.029-0.101,0.039-0.157c0.049-0.018,0.097-0.038,0.127-0.062   c0.054-0.021-0.032,0.08-0.073,0.143C8.16,2.532,8.211,2.478,8.213,2.441l0.031,0.015l0.047-0.041L8.2,2.406   C8.163,2.361,8.071,2.324,8.233,2.138c0.049-0.002,0.068,0.036,0.09,0.064L8.301,2.233c0.011-0.011,0.017-0.019,0.023-0.03   c0.031,0.041,0.068,0.064,0.201-0.056c0.117-0.048,0.316-0.483,0.582-0.778v0.004c0.002-0.002,0.004-0.007,0.004-0.01   C9.194,1.262,9.288,1.181,9.387,1.134"/>
	<path fill="#2D393A" d="M0,6.668C0.028,6.59,0.124,6.523,0.246,6.464C0.184,6.536,0.104,6.607,0,6.668"/>
	<path fill="#2D393A" d="M7.924,2.911C7.93,2.917,7.987,2.973,7.987,2.973l0.059-0.06c-0.002,0-0.002,0-0.004-0.001   C8.026,2.908,8.008,2.903,7.989,2.897C7.954,2.886,7.92,2.877,7.917,2.876C7.903,2.886,7.892,2.896,7.883,2.9   C7.894,2.908,7.917,2.903,7.924,2.911"/>
	<polygon fill="#2D393A" points="8.769,0.478 8.769,0.478 8.767,0.475  "/>
	<line fill="#2D393A" x1="8.767" y1="0.474" x2="8.767" y2="0.474"/>
	<polygon fill="#2D393A" points="8.767,0.474 8.769,0.478 8.769,0.478  "/>
	<path fill="#2D393A" d="M3.303,7.786c0.015-0.027,0.031-0.06,0.05-0.089L3.342,7.686C3.337,7.71,3.327,7.741,3.303,7.786"/>
	<path fill="#2D393A" d="M8.03,2.902c0.006,0.002-0.004-0.01,0.002-0.009c0.002,0.001-0.029-0.026-0.029-0.027L8,2.87   C7.995,2.864,7.989,2.859,7.983,2.853c-0.027,0.015-0.047,0.02-0.061,0.02C7.92,2.874,7.92,2.874,7.918,2.876   c0.01,0.002,0.032,0.007,0.063,0.018C8.002,2.899,8.014,2.898,8.03,2.902"/>
	<rect x="8.734" y="0.404" fill="#2D393A" width="0.002" height="0.127"/>
	<path fill="#2D393A" d="M0.542,5.943c0.033-0.004,0.053,0.006,0.072,0.016C0.63,5.919,0.615,5.902,0.542,5.943"/>
	<path fill="#2D393A" d="M5.018,5.811L5.006,5.823c0,0.01,0.002,0.018,0.006,0.024L5.018,5.811z"/>
	<path fill="#2D393A" d="M5.215,1.514L4.99,1.581l0.006,0.041C5.055,1.627,5.108,1.589,5.215,1.514"/>
	<path fill="#2D393A" d="M3.912,7.607C3.897,7.572,3.785,7.602,3.74,7.582l-0.104,0.16C3.721,7.691,3.866,7.58,3.912,7.607"/>
	<path fill="#2D393A" d="M3.741,7.583l0.155-0.239C3.714,7.513,3.702,7.564,3.741,7.583"/>
</g>
<polygon fill="#2D393A" points="4.673,6.861 4.618,7.031 4.731,6.746 "/>
<g>
	<path fill="#2D393A" d="M5.575,6C5.483,6.132,5.359,6.243,5.167,6.355C5.13,6.486,5.36,6.324,5.302,6.439   C5.429,6.296,5.505,6.141,5.575,6"/>
	<path fill="#2D393A" d="M5.575,6c0.047-0.068,0.09-0.143,0.124-0.229C5.653,5.837,5.616,5.916,5.575,6"/>
	<path fill="#2D393A" d="M4.473,6.938L4.326,6.945c-0.024,0.022-0.052,0.05-0.079,0.076C4.278,7.021,4.346,7.032,4.473,6.938"/>
	<path fill="#2D393A" d="M4.321,6.945h0.006c0.086-0.082,0.146-0.139,0.172-0.162C4.476,6.803,4.422,6.854,4.321,6.945"/>
	<path fill="#2D393A" d="M4.227,7.041c0.007-0.007,0.013-0.012,0.02-0.02C4.232,7.021,4.225,7.023,4.227,7.041"/>
	<path fill="#2D393A" d="M3.865,7.32l0.178-0.271L3.816,7.24C3.839,7.254,3.904,7.245,3.865,7.32"/>
	<path fill="#2D393A" d="M5.528,5.732c-0.131,0.103-0.262,0.215-0.376,0.33c0.005,0.039-0.008,0.131,0.119,0   C5.329,5.948,5.42,5.85,5.522,5.741c-0.004,0.003-0.01,0.008-0.014,0.011C5.514,5.746,5.522,5.738,5.528,5.732"/>
	<path fill="#2D393A" d="M4.803,6.486c0.005-0.01,0.011-0.019,0.016-0.024C4.801,6.467,4.79,6.475,4.803,6.486"/>
</g>
<polygon fill="#2D393A" points="6.616,4.635 6.622,4.652 6.646,4.63 "/>
<g>
	<path fill="#2D393A" d="M5.118,6.07C5.014,6.146,4.977,6.216,4.946,6.289c0.062-0.073,0.129-0.148,0.207-0.227   C5.149,6.045,5.145,6.038,5.118,6.07"/>
	<path fill="#2D393A" d="M5.973,5.433C5.913,5.465,5.846,5.505,5.779,5.549C5.846,5.525,5.976,5.468,5.973,5.433"/>
	<path fill="#2D393A" d="M4.87,6.451C4.866,6.457,4.862,6.462,4.859,6.468C4.903,6.454,4.892,6.45,4.87,6.451"/>
	<path fill="#2D393A" d="M4.87,6.451c0.037-0.057,0.056-0.11,0.078-0.162C4.897,6.35,4.853,6.408,4.819,6.462   C4.835,6.456,4.854,6.452,4.87,6.451"/>
	<path fill="#2D393A" d="M6.211,5.021L6.133,5.114c0.109-0.086,0.205-0.129,0.384-0.205c0.11-0.172,0.116-0.226,0.104-0.257   l-0.43,0.407L6.211,5.021z"/>
	<path fill="#2D393A" d="M5.767,5.475c0.096-0.07,0.016,0.021-0.012,0.063C5.757,5.542,5.759,5.55,5.761,5.554h0.004l0.369-0.441   C6.04,5.186,5.939,5.292,5.767,5.475"/>
	<path fill="#2D393A" d="M5.724,5.504C5.722,5.503,5.722,5.502,5.72,5.501c0.006-0.005,0.01-0.007,0.018-0.013   C5.734,5.495,5.73,5.5,5.724,5.504 M5.72,5.17C5.472,5.425,5.575,5.432,5.454,5.609c0.378-0.405,0,0.074,0.206-0.049l0.006,0.006   c0.008,0.008-0.077,0.1-0.137,0.164c0.002-0.002,0.006-0.004,0.008-0.006c-0.004,0.004-0.01,0.01-0.015,0.016   c0.07-0.059,0.142-0.153,0.205-0.203c0.004-0.001,0.006-0.002,0.01-0.004c0-0.002,0.012,0,0.014-0.002c-0.002-0.004,0-0.01,0-0.014   C5.749,5.509,5.747,5.5,5.747,5.49c0.002-0.002,0.004-0.002,0.004-0.004C5.751,5.35,5.918,5.124,5.72,5.17"/>
	<path fill="#2D393A" d="M5.528,5.732c-0.006,0.006-0.014,0.014-0.02,0.02c0.004-0.003,0.01-0.008,0.014-0.011   C5.527,5.736,5.531,5.73,5.537,5.725C5.534,5.727,5.531,5.73,5.528,5.732"/>
	<path fill="#2D393A" d="M5.749,5.495c0.006-0.009,0.012-0.013,0.018-0.021c-0.006,0.004-0.01,0.008-0.018,0.012   C5.749,5.49,5.749,5.492,5.749,5.495"/>
</g>
<polygon fill="#2D393A" points="6.719,4.627 6.749,4.748 6.84,4.449 "/>
<polygon fill="#2D393A" points="7.151,4.184 7.198,4.266 7.276,4.111 "/>
<g>
	<path fill="#2D393A" d="M8.79,0.421L8.774,0.406v0.001C8.78,0.413,8.784,0.418,8.79,0.421L8.79,0.421"/>
	<polyline fill="#2D393A" points="8.79,0.421 8.79,0.421 8.803,0.436 8.79,0.421  "/>
	<path fill="#2D393A" d="M8.788,0.423c0.006,0.005,0.01,0.01,0.014,0.014c0.002,0,0.002,0,0.002,0   C8.797,0.432,8.793,0.427,8.788,0.423L8.788,0.423"/>
	<polyline fill="#2D393A" points="7.911,2.873 7.911,2.873 7.913,2.873 7.911,2.873  "/>
	<path fill="#2D393A" d="M8.775,0.408C8.754,0.387,8.734,0.365,8.713,0.346c-0.002,0-0.002,0.001-0.002,0.001   C8.734,0.367,8.752,0.388,8.775,0.408L8.775,0.408z"/>
	<path fill="#2D393A" d="M8.04,3.434l0.164-0.198C8.11,3.337,8.058,3.354,7.995,3.39C8.017,3.402,8.066,3.396,8.04,3.434"/>
	<path fill="#2D393A" d="M7.573,3.377C7.491,3.325,7.387,3.474,7.256,3.625c0.008-0.008,0.019-0.017,0.025-0.023   C7.333,3.736,7.454,3.556,7.573,3.377"/>
	<path fill="#2D393A" d="M7.096,3.793c0.021,0.054,0.063-0.045,0.13-0.132C7.187,3.708,7.144,3.753,7.096,3.793"/>
</g>
</svg>