<?xml version="1.0" encoding="UTF-8"?>
<!-- Generator: Adobe Illustrator 12.0.0, SVG Export Plug-In . SVG Version: 6.00 Build 51448)  -->
<!DOCTYPE svg PUBLIC "-//W3C//DTD SVG 1.1//EN" "http://www.w3.org/Graphics/SVG/1.1/DTD/svg11.dtd">
<svg version="1.1" id="Layer_1" xmlns="http://www.w3.org/2000/svg" xmlns:xlink="http://www.w3.org/1999/xlink" width="13.018" height="11.597" viewBox="0 0 13.018 11.597" overflow="visible" enable-background="new 0 0 13.018 11.597" xml:space="preserve">
<g>
	<path fill="#2D393A" d="M6.103,6.55C6.082,6.53,6.061,6.515,6.04,6.513C6.056,6.56,6.082,6.57,6.103,6.55"/>
	<path fill="#2D393A" d="M5.929,6.737C5.917,6.693,5.903,6.673,5.887,6.66C5.897,6.703,5.91,6.736,5.929,6.737"/>
	<path fill="#2D393A" d="M8.153,6.832c0.014,0.058,0.147,0.141,0.136-0.043C8.227,6.789,8.174,6.792,8.153,6.832"/>
	<path fill="#2D393A" d="M8.555,6.714C8.569,6.739,8.59,6.768,8.615,6.801C8.613,6.806,8.612,6.811,8.61,6.815L8.485,6.762   C8.51,6.751,8.532,6.736,8.555,6.714 M8.034,6.664L7.936,6.725C7.844,6.669,7.879,6.608,7.961,6.546l0.022,0.132   C7.981,6.634,7.973,6.589,7.963,6.544c0.024-0.019,0.051-0.034,0.08-0.051L8.034,6.664z M5.878,6.539   c0.001-0.031,0.005-0.062,0.015-0.076c0.004-0.006,0.01-0.006,0.016-0.006C5.903,6.492,5.895,6.519,5.878,6.539 M5.735,6.591   c-0.018,0-0.033,0.002-0.053,0C5.7,6.563,5.717,6.532,5.735,6.503C5.737,6.541,5.737,6.567,5.735,6.591 M5.453,6.563   c-0.003-0.049-0.007-0.097,0-0.127C5.476,6.425,5.5,6.416,5.523,6.407c0.004,0.001,0.007,0,0.012,0.003   c0.029,0.072,0.01,0.113-0.01,0.163C5.501,6.568,5.477,6.565,5.453,6.563 M5.356,6.554l0.049-0.098   c0.004-0.002,0.008-0.002,0.012-0.004c0.004,0.039,0.005,0.073,0.005,0.104C5.399,6.556,5.377,6.555,5.356,6.554 M4.997,6.501   L4.996,6.446C5.01,6.455,5.019,6.464,5.027,6.475C5.018,6.483,5.007,6.494,4.997,6.501 M4.132,5.193L4.132,5.193   C4.131,5.259,4.13,5.328,4.129,5.391C4.13,5.331,4.131,5.264,4.132,5.193 M4.149,3.987C4.147,4.021,4.147,4.056,4.147,4.091   C4.147,4.057,4.147,4.021,4.149,3.987 M4.163,3.982c-0.003,0-0.006,0.001-0.009,0.002C4.158,3.983,4.16,3.982,4.163,3.982    M7.405,3.612c0.019,0.086,0.489,0.006,0.012,0.239c0.265-0.057,0.449,0.001,0.599,0.088C7.928,3.953,7.84,3.97,7.754,3.996   c-0.051-0.003-0.099,0-0.144,0.007C7.586,3.982,7.555,3.97,7.518,3.969c-0.002-0.034,0-0.065,0.031-0.088   c-0.09,0.008-0.183,0.02-0.272,0.032C7.278,3.909,7.282,3.906,7.284,3.9c-0.019,0.006-0.03,0.011-0.041,0.017   c-0.133,0.017-0.258,0.03-0.366,0.02C7.133,3.878,7.356,3.796,7.405,3.612"/>
	<path fill="#2D393A" d="M12.36,7.352c0.003,0.007,0.009,0.015,0.019,0.022C12.377,7.366,12.369,7.358,12.36,7.352"/>
	<path fill="#2D393A" d="M12.502,10.021c-0.033,0.057-0.072,0.008,0.025,0.05c0-0.008,0.002-0.012,0.004-0.018   C12.524,10.046,12.516,10.039,12.502,10.021"/>
	<path fill="#2D393A" d="M12.532,10.052C12.568,10.08,12.547,9.994,12.532,10.052"/>
	<path fill="#2D393A" d="M10.219,11.123c0.008,0.002,0.01,0.004,0.017,0.006c-0.004-0.004-0.009-0.012-0.013-0.017L10.219,11.123z"/>
	<path fill="#2D393A" d="M8.934,5.561C8.864,5.532,8.784,5.496,8.701,5.428l0.034-0.032C8.793,5.45,8.864,5.505,8.934,5.561    M9.219,5.833C9.211,5.83,9.201,5.826,9.19,5.817C9.188,5.806,9.184,5.798,9.182,5.789C9.195,5.804,9.207,5.818,9.219,5.833    M5.633,6.451C5.555,6.423,5.488,6.328,5.428,6.205C5.5,6.266,5.572,6.346,5.633,6.451 M10.399,7.255   c-0.003,0.008-0.003,0.017,0,0.029c-0.011,0.006-0.021,0.012-0.034,0.016c-0.096-0.088-0.162-0.162-0.208-0.228L10.399,7.255z    M8.459,8.328c-0.02-0.002-0.041-0.007-0.063-0.012C8.254,8.175,8.111,8.031,7.975,7.885C8.246,8.074,8.292,8.167,8.459,8.328    M11.408,8.605c0.029,0.04,0.063,0.083,0.094,0.125c-0.078-0.053-0.154-0.095-0.22-0.111c-0.073-0.097-0.177-0.164-0.222-0.291   C11.149,8.291,11.268,8.431,11.408,8.605 M9.32,8.936c-0.104-0.04-0.031,0.058,0.02,0.14C9.262,9.052,9.182,9.027,9.1,8.988   C9.016,8.907,8.924,8.821,8.83,8.733c0.037-0.006,0.076-0.021,0.11-0.045C9.065,8.748,9.197,8.833,9.32,8.936 M11.184,8.606   c0.004,0.002,0.007,0.006,0.013,0.009c-0.006,0.001-0.013,0.001-0.017,0.004C11.182,8.615,11.182,8.611,11.184,8.606 M9.583,8.541   c0.005,0.002,0.009,0.002,0.013,0.004c0,0.002,0,0.004,0,0.006C9.592,8.546,9.588,8.544,9.583,8.541 M9.568,8.526   c-0.008-0.005-0.014-0.01-0.02-0.015C9.557,8.503,9.565,8.498,9.573,8.49c0.01,0.012,0.021,0.023,0.028,0.035   C9.59,8.526,9.578,8.526,9.568,8.526 M9.467,8.443c0.017-0.01,0.027-0.02,0.035-0.029c0.014,0.013,0.025,0.024,0.036,0.037   C9.536,8.464,9.533,8.479,9.529,8.496C9.508,8.477,9.489,8.46,9.467,8.443 M11.905,9.433c-0.019-0.02-0.037-0.036-0.058-0.053   l0.009-0.006L11.905,9.433z M9.917,9.439C9.907,9.428,9.899,9.417,9.891,9.41c0.002,0,0.006,0,0.011,0L9.917,9.439z M11.549,10.446   c0.025,0.021,0.045,0.035,0.06,0.048l0.021,0.034c0,0,0,0-0.002,0.001c-0.016-0.005-0.035-0.014-0.062-0.025l-0.028-0.059   C11.54,10.445,11.545,10.446,11.549,10.446 M11.494,10.505c-0.021-0.034-0.018-0.053,0.004-0.06   c-0.008,0.021-0.018,0.03,0.008,0.062c-0.005,0.005,0,0.018,0.021,0.039C11.469,10.507,11.442,10.486,11.494,10.505 M12.346,11.144   c0.015,0.02,0.024,0.035,0.037,0.054C12.34,11.154,12.32,11.13,12.346,11.144 M10.268,10.791l-0.028,0.004   c-0.004-0.004-0.011-0.008-0.017-0.014c0.02,0.001,0.035,0,0.052-0.006C10.27,10.78,10.27,10.785,10.268,10.791 M4.579,5.438   l0.136,0.239C4.69,5.615,4.684,5.574,4.696,5.55c0.093,0.089,0.182,0.175,0.259,0.256C4.943,5.813,4.932,5.824,4.924,5.835   C4.961,5.85,5.02,5.891,5.076,5.94C5.034,5.931,5.003,5.929,5.003,5.953c0.003,0.023,0.065,0.045,0.154,0.084L5.122,6.242   l0.069-0.022l0.425,0.592c0.367,0.198,0.742,0.331,1.181,0.62C6.854,7.5,6.912,7.568,6.975,7.632c-0.055,0-0.143-0.109-0.191-0.197   C6.844,7.571,6.926,7.688,7.02,7.796C6.997,7.841,6.983,7.9,6.932,7.943C6.877,7.68,6.438,7.542,6.16,7.218   C6.306,7.386,6.222,7.4,6.165,7.376l0.634,0.438C6.702,7.887,6.852,7.991,6.958,8.164c0.058-0.271,0.511,0.287,0.783,0.444   C7.702,8.676,7.592,8.687,7.336,8.412c0.176,0.416,0.575,0.172,0.768,0.561C8.036,8.91,8.008,8.869,7.954,8.871   C8.157,8.969,8.5,9.367,8.365,9.332L8.297,9.27c0.074,0.075,0.164,0.161,0.262,0.252c0.056,0.159,0.103,0.289,0.146,0.224   l0.019-0.072C8.867,9.802,9.02,9.934,9.167,10.05c0.093,0.07,0.181,0.136,0.263,0.191c0.002,0.008,0.004,0.016,0.004,0.023   c0.063,0.008,0.188,0.115,0.33,0.23C9.7,10.527,9.627,10.557,9.598,10.56c0,0,0.139,0.025,0.32,0.059   c0.114,0.086,0.225,0.152,0.309,0.159c0.004,0.005,0.008,0.011,0.012,0.015l-0.438,0.062c0.24,0.043,0.32,0.134,0.426,0.258   l0.053-0.263c0.088,0.117,0.182,0.227,0.298,0.299c-0.071,0.061-0.174,0.075-0.339-0.021c0.086,0.104,0.191,0.229,0.418,0.369   l0.646-0.677c-0.019-0.013-0.039-0.028-0.062-0.045c0.011,0.021,0.019,0.052,0.019,0.085l-0.566,0.594   c-0.002-0.023-0.002-0.049,0-0.072l0.007,0.002l0.108-0.113c0.008,0.021,0.014,0.037,0.006,0.041l0.309-0.323   c-0.004-0.015-0.007-0.022-0.012-0.034l0.078-0.084l-0.119-0.033c-0.049-0.125-0.079-0.16-0.157-0.322   c0.021,0.004,0.04,0.009,0.065,0.018c-0.026-0.014-0.051-0.025-0.074-0.035c-0.021-0.045-0.045-0.095-0.072-0.158   c0.025,0.045,0.006,0.08-0.037,0.104c-0.125-0.063-0.197-0.107-0.259-0.146c0.056-0.053,0.12-0.113,0.168-0.088l-0.587-0.244   c0.133,0.074,0.178-0.133,0.145-0.278c0.002,0.05-0.133-0.108-0.265-0.259c0.045,0.011,0.103,0.023,0.179,0.046l0.043,0.14   c0.188,0.04,0.219,0.02,0.551,0.227c-0.305-0.125,0.125,0.25-0.223,0.121c0.56,0.633,1.104,0.543,1.262,0.979   c0.016,0,0.021,0,0.027-0.001v-0.002v-0.002v0.002l0.025-0.005c-0.012,0.003-0.016,0.006-0.025,0.007v0.027   c0.232,0.18,0.479,0.279,0.592,0.435l0.59-0.554c-0.041-0.063-0.053-0.133-0.063-0.219c-0.128-0.029-0.133,0.014-0.099,0.084   c-0.106-0.112-0.22-0.229-0.334-0.338c-0.023-0.123-0.065-0.267-0.156-0.432l0.074-0.002c0.017-0.037-0.017-0.078,0.018-0.085   c-0.062-0.017-0.079,0.017-0.096,0.076c-0.026-0.05-0.058-0.099-0.095-0.152c0.037,0.056,0.056,0.05,0.091,0.104   c-0.063-0.176-0.214-0.285-0.328-0.448l0.021-0.009l-0.021,0.008c-0.03-0.043-0.059-0.092-0.08-0.145l0.105-0.103   c-0.008-0.011-0.018-0.021-0.025-0.03c-0.01-0.023-0.014-0.051-0.014-0.08c-0.021-0.002-0.055-0.019-0.094-0.041   c-0.058-0.064-0.111-0.121-0.146-0.147l0.041,0.075c-0.039-0.03-0.082-0.063-0.125-0.097c-0.123-0.127-0.238-0.231-0.073-0.211   c-0.157-0.028-0.248-0.14-0.336-0.272c0.001,0,0.002,0.002,0.003,0.002c-0.001,0-0.003-0.002-0.004-0.002   c-0.111-0.168-0.221-0.373-0.457-0.506l0.105-0.045c-0.051-0.039-0.148-0.108-0.229-0.19c-0.005-0.011-0.013-0.021-0.022-0.037   c0.021,0.009,0.067,0.024,0.113,0.042c0.065,0.023,0.129,0.049,0.129,0.049c-0.078-0.053-0.143-0.115-0.195-0.188   c0.045,0.035,0.086,0.072,0.108,0.096l-0.206-0.25c-0.101-0.177-0.181-0.367-0.337-0.5c0.196,0.238,0.228,0.313,0.206,0.342   l-0.188-0.227c-0.037,0.054-0.135,0.004-0.241-0.065C9.992,6.685,10.074,6.53,9.661,6.083c0.084,0.104,0.181,0.287,0.124,0.285   L9.727,6.339C9.618,6.18,9.485,5.96,9.451,5.833c-0.29-0.295-0.218-0.158-0.186-0.059c-0.164-0.137-0.301-0.24-0.471-0.398   l0.006-0.006c-0.42-0.564-0.313,0.002-0.725-0.549l0.309,0.095l-0.278-0.23L8.247,4.65c-0.34-0.211-0.401-0.32-0.651-0.608   c0.008,0.118-0.179,0.109-0.422-0.12C7.055,3.715,7.34,3.934,6.985,3.615C7.08,3.633,7.188,3.648,7.268,3.752L7.139,3.671   l0.064,0.062l0.084,0.049C7.305,3.808,7.32,3.839,7.334,3.877c0.034-0.009,0.098,0.012,0.141,0.014l0.142,0.08L7.487,3.89   c0.004,0,0.01,0.001,0.014,0C7.374,3.664,7.065,3.442,6.938,3.328c0.047,0.048,0.102,0.106,0.119,0.146   c0,0-0.151-0.091-0.308-0.178C6.685,3.259,6.624,3.224,6.571,3.193l-2.119,2.12C4.492,5.353,4.535,5.396,4.579,5.438"/>
</g>
<g>
	<path fill="#2D393A" d="M4.353,5.751c-0.061,0.026-0.142,0.071-0.25,0.145L4.353,5.751z"/>
	<path fill="#2D393A" d="M8.594,5.848L8.564,6.046C8.734,5.835,8.618,5.896,8.594,5.848"/>
</g>
<path fill="#2D393A" d="M12.346,0.475L12.342,0.47L12.346,0.475z"/>
<g>
	<path fill="#2D393A" d="M12.23,1.824c0.016-0.014,0.027-0.026,0.037-0.039C12.258,1.798,12.245,1.811,12.23,1.824 M11.139,2.913   c-0.002-0.005-0.002-0.011-0.006-0.016l0.068-0.035L11.139,2.913z M10.286,4.036c0.046-0.104,0.125-0.244,0.121-0.326l0.119-0.064   C10.438,3.828,10.336,3.961,10.286,4.036 M10.188,0.895c-0.061-0.011-0.106,0.015-0.147,0.054c0.005-0.017,0.013-0.037,0.029-0.061   c0.047,0.025,0.075-0.081,0.139-0.015L10.188,0.895z M10.163,3.929c-0.005-0.003-0.006-0.011-0.006-0.021   c0.019-0.014,0.033-0.026,0.049-0.041L10.163,3.929z M9.855,4.264c-0.004,0-0.01,0-0.016,0.001C9.862,4.22,9.891,4.17,9.918,4.119   c0.063-0.056,0.125-0.11,0.188-0.165C10.071,4.045,9.98,4.166,9.855,4.264 M10.123,0.816l0.021,0.014   c-0.016,0.011-0.03,0.014-0.045,0.016C10.108,0.836,10.115,0.826,10.123,0.816 M9.639,1.104C9.604,1.111,9.579,1.14,9.564,1.172   L9.434,1.293C9.418,1.3,9.405,1.311,9.391,1.318c0.065-0.086,0.166-0.223,0.254-0.219L9.639,1.104z M6.896,7.507   c0.011-0.021,0.018-0.033,0.018-0.033c0.042-0.021,0.061-0.02,0.068-0.004C6.963,7.474,6.934,7.485,6.896,7.507 M12.969,1.135   c-0.109,0.021-0.232,0.06-0.113-0.123c0.01-0.009,0.014-0.014,0.014-0.014c-0.001-0.003-0.002-0.004-0.004-0.005l0,0   c0,0-0.004-0.004-0.006-0.006l-0.025-0.025c0,0,0.018,0.019,0.025,0.025l0.006,0.006c0.002,0.001,0.014,0.014,0.014,0.014   s0.021-0.021,0.029-0.03c-0.003-0.003-0.006,0.047-0.01,0.044c0-0.001-0.002,0.049-0.004,0.049h0.002c0,0,0.002-0.051,0.002-0.049   c0.002-0.001-0.002-0.028-0.002-0.028l-0.008-0.02V0.968c0,0.001,0.006,0,0.008,0.001c0.002,0.003,0.009,0.005,0.012,0.008   c0.001-0.001,0.006-0.006,0.006-0.006l-0.538-0.516c-0.001,0.003-0.028,0.021-0.03,0.021l0.004,0.003c0,0,0.002,0,0,0l0,0   c0-0.001-0.002-0.003-0.002-0.004c-0.002,0-0.002,0-0.002,0l-0.004-0.004l0.004,0.004c0,0,0.014-0.012,0.008-0.009   c-0.018,0.005-0.004-0.016,0.008-0.033c-0.005-0.005-0.005-0.013-0.01-0.018l-0.068,0.104c0,0.001,0,0.001-0.001,0.001L12.28,0.522   c-0.047,0.034-0.099,0.068-0.151,0.104c-0.003-0.057,0.068-0.174,0.164-0.279c-0.02-0.021-0.041-0.043-0.061-0.064   c-0.178,0.044-0.155,0.168-0.309,0.351L11.221,0l-0.068,0.069c-0.09,0.06-0.107,0.025-0.051-0.028L10.92,0.185   c-0.009-0.007-0.017-0.012-0.021-0.019c0.005,0.011,0.008,0.02,0.01,0.027l-0.076,0.06c-0.095,0.005-0.236-0.017-0.181,0.142   l-0.013,0.01c-0.006-0.004-0.014-0.009-0.018-0.015c0.014-0.03,0.012-0.043-0.015-0.027c-0.009-0.015-0.017-0.028-0.034-0.038   c0.047,0.089,0.035,0.133-0.048,0.159l-0.013-0.021c-0.06,0.081-0.121,0.124-0.188,0.162c-0.438-0.031-0.192,0.256-0.897,0.559   l0.26-0.245C9.395,0.933,9.213,1.153,8.827,1.313C8.936,1.3,9.586,1.06,9.381,1.327C9.235,1.415,9.079,1.534,8.963,1.653   C8.885,1.625,8.743,1.761,8.561,1.91L8.484,1.782C8.283,1.998,8.348,2.044,8.256,2.201C7.993,2.392,7.868,2.346,7.748,2.317   C7.327,2.625,8.143,2.235,7.682,2.643C7.315,2.875,7.115,3.111,6.78,3.512C6.517,3.669,6.762,3.408,6.652,3.447L6.524,3.711   C6.473,3.751,6.466,3.71,6.462,3.689C6.32,3.87,6.544,3.814,6.301,4.074C6.335,4.258,5.598,4.372,5.39,4.801   c-0.108,0.04-0.021-0.104-0.084-0.124C4.983,5.113,4.978,5.101,4.805,5.403C4.778,5.43,4.75,5.461,4.722,5.488l2.12,2.119   C6.85,7.594,6.858,7.578,6.865,7.565C6.871,7.621,6.94,7.604,6.924,7.689l0.01,0.012c0.048-0.086,0.099-0.176,0.09-0.213   c0.044-0.076,0.085-0.16,0.174-0.267C7.229,7.32,7.309,7.373,7.143,7.617c0,0,0.093-0.139,0.186-0.277   c0.094-0.139,0.182-0.28,0.182-0.28c0.027-0.004,0.1-0.048,0.164-0.082l-0.05,0.075l0.084-0.071L7.706,6.958   c0.052-0.023,0.089-0.035,0.075,0c0.141-0.121,0.254-0.319,0.378-0.529C8.28,6.218,8.407,5.992,8.588,5.826   c0.002-0.029,0.021-0.08,0.075-0.169c0.173-0.191,0.353-0.36,0.517-0.562l0.008,0.012L9.225,5.04   C9.27,4.983,9.313,4.922,9.356,4.856l0.051-0.013c0.083-0.097,0.071-0.119,0.03-0.122c0.029-0.055,0.06-0.11,0.087-0.17   l0.153-0.075c0,0.043,0.021,0.079,0.058,0.105C9.709,4.602,9.711,4.622,9.76,4.658c0.015-0.012,0.027-0.025,0.041-0.04   c0.104,0.04,0.254,0.046,0.396,0.021c-0.021-0.034-0.048-0.062,0.122-0.306c-0.093,0.031-0.425,0.28-0.445,0.207   c0.054-0.058,0.104-0.118,0.157-0.164C9.981,4.431,9.93,4.469,9.883,4.497c0.004-0.007,0.006-0.014,0.01-0.023   c0.244-0.306,0.25-0.2,0.418-0.298c-0.051,0.008-0.06-0.021-0.045-0.069c0.01,0.012,0.054,0.001,0.145-0.035   c-0.115-0.165,0.281-0.486,0.54-0.768l0.006,0.002l0.001-0.01c0.135-0.146,0.227-0.28,0.188-0.373l0.05-0.029l0.054-0.049   l0.094-0.046c-0.049,0.04-0.043,0.061-0.091,0.101c0.115-0.051,0.171-0.103,0.201-0.16c0.033,0.034,0.065,0.068,0.101,0.104   c-0.011,0.006-0.027,0.02-0.047,0.034c0.016,0.001,0.034-0.006,0.063-0.02c0.005,0.006,0.011,0.011,0.018,0.017l0.002-0.004   c0,0.001,0.03,0.027,0.028,0.027c-0.005-0.001,0.005,0.011-0.002,0.009c-0.015-0.005-0.026-0.004-0.046-0.009   c-0.031-0.01-0.055-0.016-0.064-0.018c0,0.001-0.002,0.001-0.003,0.002c0.005,0.001,0.037,0.01,0.073,0.021   c0.02,0.006,0.037,0.011,0.051,0.015c0.004,0.002,0.004,0.002,0.006,0.002l0.002-0.004c0,0,0.008,0.006,0.006,0.005   c-0.004-0.001-0.006-0.001-0.008-0.001l-0.06,0.059c0,0-0.056-0.056-0.062-0.062c-0.009-0.008-0.031-0.004-0.041-0.009   c0.008-0.005,0.021-0.015,0.031-0.024c0-0.001-0.001-0.001-0.001-0.001c-0.146,0.092-0.282,0.194-0.284,0.333l0.274-0.135   c-0.16,0.258-0.312,0.62-0.604,0.846c0.217-0.018,0.049-0.071,0.35-0.137c-0.305,0.014,0.672-0.651,0.264-0.55   c0.141-0.022,0.232-0.077,0.322-0.142l-0.357-0.374c0.021-0.049,0.028-0.101,0.038-0.157c0.05-0.018,0.097-0.038,0.128-0.062   c0.053-0.021-0.033,0.08-0.074,0.143c0.185-0.115,0.235-0.169,0.237-0.206l0.032,0.015l0.047-0.041l-0.092-0.009   c-0.038-0.045-0.129-0.082,0.033-0.268c0.049-0.002,0.066,0.036,0.09,0.064l-0.021,0.031c0.01-0.011,0.016-0.019,0.023-0.03   c0.031,0.041,0.068,0.064,0.201-0.056c0.117-0.048,0.316-0.483,0.582-0.778v0.004c0.002-0.002,0.004-0.007,0.004-0.01   C12.775,1.263,12.867,1.182,12.969,1.135"/>
	<path fill="#2D393A" d="M3.58,6.667c0.028-0.078,0.124-0.145,0.246-0.203C3.765,6.537,3.685,6.607,3.58,6.667"/>
	<path fill="#2D393A" d="M11.506,2.911c0.006,0.006,0.062,0.062,0.062,0.062l0.059-0.06c-0.002,0-0.003,0-0.005-0.001   c-0.015-0.004-0.031-0.009-0.052-0.015c-0.035-0.011-0.068-0.02-0.072-0.021c-0.014,0.01-0.026,0.02-0.032,0.024   C11.475,2.908,11.497,2.903,11.506,2.911"/>
	<polygon fill="#2D393A" points="12.35,0.479 12.35,0.479 12.348,0.476  "/>
	<line fill="#2D393A" x1="12.346" y1="0.475" x2="12.346" y2="0.475"/>
	<polygon fill="#2D393A" points="12.346,0.475 12.35,0.479 12.35,0.479  "/>
	<path fill="#2D393A" d="M6.885,7.787c0.014-0.027,0.03-0.06,0.049-0.09L6.922,7.685C6.917,7.71,6.908,7.741,6.885,7.787"/>
	<path fill="#2D393A" d="M11.61,2.902c0.007,0.002-0.003-0.01,0.002-0.009c0.002,0.001-0.028-0.026-0.028-0.027L11.581,2.87   c-0.006-0.006-0.012-0.011-0.017-0.017c-0.027,0.015-0.047,0.02-0.063,0.02c-0.001,0.001-0.002,0.001-0.003,0.003   c0.011,0.002,0.033,0.007,0.063,0.018C11.583,2.899,11.596,2.898,11.61,2.902"/>
	<rect x="12.315" y="0.405" fill="#2D393A" width="0.002" height="0.127"/>
	<path fill="#2D393A" d="M4.121,5.944c0.034-0.005,0.053,0.005,0.073,0.015C4.21,5.919,4.195,5.902,4.121,5.944"/>
	<path fill="#2D393A" d="M8.598,5.812l-0.01,0.012c0,0.01,0.002,0.018,0.006,0.025L8.598,5.812z"/>
	<path fill="#2D393A" d="M8.797,1.515L8.571,1.582l0.006,0.041C8.637,1.628,8.689,1.59,8.797,1.515"/>
	<path fill="#2D393A" d="M7.492,7.608C7.479,7.572,7.365,7.601,7.32,7.582l-0.104,0.16C7.301,7.692,7.446,7.58,7.492,7.608"/>
	<path fill="#2D393A" d="M7.321,7.583l0.155-0.239C7.295,7.514,7.282,7.565,7.321,7.583"/>
</g>
<polygon fill="#2D393A" points="8.254,6.862 8.198,7.031 8.313,6.746 "/>
<g>
	<path fill="#2D393A" d="M9.155,6C9.064,6.132,8.939,6.244,8.747,6.356C8.711,6.486,8.941,6.324,8.883,6.44   C9.01,6.296,9.086,6.142,9.155,6"/>
	<path fill="#2D393A" d="M9.155,6c0.048-0.068,0.091-0.143,0.123-0.228C9.234,5.837,9.196,5.916,9.155,6"/>
	<path fill="#2D393A" d="M8.055,6.938L7.906,6.946c-0.023,0.022-0.051,0.05-0.078,0.075C7.858,7.021,7.926,7.032,8.055,6.938"/>
	<path fill="#2D393A" d="M7.902,6.946h0.005c0.087-0.082,0.147-0.139,0.172-0.163C8.057,6.804,8.004,6.854,7.902,6.946"/>
	<path fill="#2D393A" d="M7.809,7.041c0.006-0.006,0.012-0.012,0.02-0.019C7.813,7.022,7.807,7.024,7.809,7.041"/>
	<path fill="#2D393A" d="M7.445,7.321l0.178-0.272L7.396,7.24C7.42,7.255,7.484,7.246,7.445,7.321"/>
	<path fill="#2D393A" d="M9.109,5.732C8.979,5.835,8.848,5.948,8.732,6.063c0.006,0.039-0.008,0.13,0.119-0.001   C8.91,5.948,9,5.85,9.104,5.741C9.098,5.744,9.094,5.75,9.09,5.751C9.096,5.746,9.104,5.739,9.109,5.732"/>
	<path fill="#2D393A" d="M8.385,6.486C8.389,6.477,8.395,6.468,8.4,6.462C8.381,6.468,8.369,6.476,8.385,6.486"/>
</g>
<polygon fill="#2D393A" points="10.196,4.636 10.202,4.652 10.227,4.631 "/>
<g>
	<path fill="#2D393A" d="M8.699,6.07C8.596,6.146,8.559,6.216,8.527,6.289C8.588,6.216,8.656,6.14,8.733,6.063   C8.73,6.046,8.725,6.039,8.699,6.07"/>
	<path fill="#2D393A" d="M9.555,5.434C9.492,5.466,9.428,5.506,9.359,5.55C9.428,5.526,9.557,5.469,9.555,5.434"/>
	<path fill="#2D393A" d="M8.449,6.451C8.445,6.457,8.442,6.462,8.438,6.468C8.484,6.455,8.473,6.451,8.449,6.451"/>
	<path fill="#2D393A" d="M8.449,6.451c0.037-0.057,0.057-0.109,0.078-0.162C8.477,6.349,8.432,6.408,8.399,6.462   C8.415,6.457,8.436,6.453,8.449,6.451"/>
	<path fill="#2D393A" d="M9.792,5.021L9.715,5.114c0.107-0.086,0.205-0.129,0.383-0.205c0.11-0.172,0.117-0.226,0.104-0.257   L9.771,5.059L9.792,5.021z"/>
	<path fill="#2D393A" d="M9.348,5.476c0.096-0.07,0.015,0.021-0.012,0.062C9.338,5.543,9.34,5.551,9.342,5.555h0.004l0.369-0.441   C9.62,5.187,9.518,5.292,9.348,5.476"/>
	<path fill="#2D393A" d="M9.305,5.505C9.303,5.504,9.303,5.503,9.301,5.502c0.006-0.005,0.01-0.007,0.018-0.013   C9.314,5.495,9.311,5.5,9.305,5.505 M9.301,5.171c-0.248,0.255-0.146,0.262-0.267,0.44c0.378-0.406-0.001,0.073,0.204-0.05   l0.006,0.006c0.01,0.009-0.074,0.101-0.136,0.165C9.11,5.73,9.113,5.727,9.116,5.725C9.111,5.73,9.106,5.735,9.1,5.741   c0.07-0.059,0.144-0.153,0.205-0.203c0.004-0.001,0.006-0.002,0.01-0.004c0.001-0.002,0.013,0,0.015-0.002   C9.327,5.528,9.328,5.523,9.328,5.519C9.326,5.51,9.325,5.501,9.325,5.491C9.327,5.49,9.328,5.489,9.329,5.488   C9.331,5.351,9.498,5.124,9.301,5.171"/>
	<path fill="#2D393A" d="M9.109,5.732c-0.006,0.007-0.014,0.014-0.02,0.02C9.094,5.75,9.098,5.744,9.104,5.741   C9.107,5.736,9.111,5.73,9.117,5.725C9.115,5.728,9.111,5.73,9.109,5.732"/>
	<path fill="#2D393A" d="M9.329,5.495c0.007-0.008,0.013-0.013,0.019-0.02c-0.006,0.004-0.01,0.007-0.019,0.012   C9.329,5.49,9.329,5.492,9.329,5.495"/>
</g>
<polygon fill="#2D393A" points="10.299,4.628 10.328,4.748 10.42,4.449 "/>
<polygon fill="#2D393A" points="10.732,4.185 10.779,4.267 10.857,4.111 "/>
<g>
	<polyline fill="#2D393A" points="12.369,0.422 12.355,0.407 12.355,0.408 12.369,0.423 12.369,0.422  "/>
	<polyline fill="#2D393A" points="12.37,0.422 12.37,0.422 12.385,0.437 12.37,0.422  "/>
	<path fill="#2D393A" d="M12.368,0.424c0.005,0.005,0.011,0.01,0.015,0.014c0.002,0,0.002,0,0.002,0   C12.379,0.433,12.373,0.428,12.368,0.424L12.368,0.424"/>
	<polyline fill="#2D393A" points="11.491,2.873 11.491,2.873 11.493,2.873 11.491,2.873  "/>
	<path fill="#2D393A" d="M12.355,0.408c-0.02-0.021-0.041-0.043-0.061-0.062c-0.003,0-0.003,0.001-0.003,0.001   C12.313,0.367,12.333,0.389,12.355,0.408L12.355,0.408z"/>
	<path fill="#2D393A" d="M11.62,3.435l0.164-0.198c-0.095,0.101-0.146,0.118-0.209,0.154C11.596,3.402,11.646,3.396,11.62,3.435"/>
	<path fill="#2D393A" d="M11.154,3.378c-0.082-0.052-0.186,0.097-0.316,0.248c0.008-0.008,0.018-0.017,0.025-0.023   C10.913,3.736,11.033,3.557,11.154,3.378"/>
	<path fill="#2D393A" d="M10.678,3.793c0.021,0.054,0.062-0.045,0.129-0.132C10.768,3.708,10.725,3.754,10.678,3.793"/>
</g>
<g>
	<path fill="#2D393A" d="M6.916,5.047c0.02,0.021,0.041,0.036,0.063,0.038C6.963,5.038,6.936,5.027,6.916,5.047"/>
	<path fill="#2D393A" d="M7.09,4.86c0.012,0.044,0.025,0.064,0.041,0.078C7.121,4.895,7.108,4.861,7.09,4.86"/>
	<path fill="#2D393A" d="M4.866,4.766C4.852,4.709,4.718,4.626,4.731,4.81C4.791,4.81,4.844,4.806,4.866,4.766"/>
	<path fill="#2D393A" d="M4.463,4.884C4.449,4.859,4.43,4.83,4.404,4.797c0.002-0.005,0.002-0.01,0.004-0.014l0.125,0.053   C4.508,4.847,4.487,4.861,4.463,4.884 M4.985,4.935l0.098-0.062C5.175,4.929,5.14,4.99,5.058,5.052L5.035,4.92   c0.002,0.044,0.01,0.089,0.02,0.134c-0.023,0.018-0.051,0.034-0.08,0.051L4.985,4.935z M7.141,5.059   C7.139,5.091,7.135,5.121,7.125,5.136c-0.004,0.006-0.01,0.006-0.016,0.005C7.116,5.105,7.123,5.079,7.141,5.059 M7.283,5.006   c0.018,0,0.033-0.001,0.053,0c-0.018,0.029-0.035,0.06-0.053,0.088C7.282,5.057,7.282,5.03,7.283,5.006 M7.565,5.035   c0.004,0.049,0.008,0.096,0,0.127c-0.023,0.011-0.048,0.021-0.07,0.029c-0.004-0.001-0.006,0-0.012-0.002   c-0.029-0.073-0.011-0.114,0.01-0.164C7.518,5.029,7.541,5.032,7.565,5.035 M7.662,5.044L7.613,5.141   C7.609,5.143,7.605,5.144,7.602,5.146c-0.004-0.04-0.004-0.074-0.004-0.105C7.619,5.042,7.641,5.043,7.662,5.044 M8.021,5.096   v0.056c-0.014-0.008-0.022-0.018-0.03-0.029C8,5.114,8.012,5.104,8.021,5.096 M8.887,6.404L8.887,6.404   c0-0.066,0.002-0.135,0.002-0.197C8.889,6.267,8.887,6.333,8.887,6.404 M8.869,7.61c0.002-0.034,0.002-0.069,0.002-0.104   C8.871,7.541,8.871,7.576,8.869,7.61 M8.856,7.615c0.002,0,0.006-0.001,0.008-0.002C8.862,7.614,8.858,7.615,8.856,7.615    M5.614,7.985c-0.018-0.086-0.49-0.006-0.012-0.239c-0.264,0.058-0.449,0-0.598-0.088C5.092,7.644,5.18,7.626,5.266,7.601   c0.051,0.003,0.098,0,0.143-0.007c0.025,0.021,0.055,0.032,0.092,0.034c0.002,0.033,0,0.064-0.031,0.088   c0.09-0.008,0.184-0.021,0.273-0.032C5.741,7.688,5.737,7.691,5.735,7.697C5.753,7.691,5.766,7.686,5.776,7.68   C5.909,7.664,6.034,7.65,6.143,7.66C5.887,7.72,5.662,7.802,5.614,7.985"/>
	<path fill="#2D393A" d="M0.658,4.246C0.656,4.239,0.65,4.231,0.64,4.223C0.641,4.231,0.649,4.239,0.658,4.246"/>
	<path fill="#2D393A" d="M0.516,1.577C0.549,1.52,0.59,1.569,0.491,1.527c0,0.008-0.002,0.012-0.004,0.018   C0.494,1.552,0.504,1.56,0.516,1.577"/>
	<path fill="#2D393A" d="M0.487,1.546C0.451,1.519,0.471,1.604,0.487,1.546"/>
	<path fill="#2D393A" d="M2.799,0.476c-0.006-0.003-0.01-0.004-0.016-0.007c0.004,0.005,0.01,0.012,0.014,0.017L2.799,0.476z"/>
	<path fill="#2D393A" d="M4.084,6.037c0.07,0.029,0.15,0.065,0.234,0.133L4.283,6.203C4.225,6.147,4.155,6.093,4.084,6.037    M3.799,5.764c0.01,0.005,0.018,0.009,0.029,0.017C3.83,5.792,3.834,5.8,3.836,5.809C3.824,5.794,3.811,5.779,3.799,5.764    M7.385,5.146C7.463,5.174,7.53,5.27,7.59,5.392C7.518,5.332,7.448,5.252,7.385,5.146 M2.619,4.342   c0.002-0.007,0.002-0.016,0-0.028c0.01-0.007,0.021-0.012,0.035-0.016C2.748,4.385,2.816,4.46,2.861,4.525L2.619,4.342z    M4.559,3.27C4.579,3.273,4.6,3.277,4.621,3.282c0.145,0.141,0.287,0.285,0.422,0.431C4.772,3.523,4.727,3.431,4.559,3.27    M1.61,2.992c-0.029-0.04-0.062-0.083-0.094-0.125C1.594,2.92,1.67,2.962,1.737,2.978C1.809,3.075,1.913,3.143,1.958,3.27   C1.869,3.308,1.75,3.167,1.61,2.992 M3.699,2.662c0.104,0.04,0.031-0.058-0.02-0.139c0.078,0.023,0.158,0.048,0.24,0.087   c0.084,0.081,0.176,0.167,0.27,0.255C4.152,2.871,4.113,2.886,4.078,2.91C3.953,2.85,3.823,2.764,3.699,2.662 M1.834,2.991   C1.83,2.989,1.828,2.985,1.822,2.982c0.006-0.001,0.012-0.001,0.016-0.003C1.836,2.982,1.836,2.986,1.834,2.991 M3.436,3.058   C3.43,3.056,3.426,3.056,3.422,3.053c0-0.002,0-0.003,0-0.005C3.426,3.051,3.43,3.054,3.436,3.058 M3.451,3.071   c0.006,0.005,0.012,0.01,0.018,0.015C3.461,3.094,3.453,3.099,3.446,3.107c-0.01-0.012-0.021-0.023-0.029-0.035   C3.428,3.071,3.44,3.071,3.451,3.071 M3.551,3.154c-0.016,0.01-0.027,0.02-0.035,0.03C3.502,3.171,3.491,3.159,3.481,3.146   c0.002-0.014,0.004-0.028,0.008-0.044C3.51,3.121,3.53,3.137,3.551,3.154 M1.114,2.165c0.018,0.019,0.037,0.036,0.057,0.053   L1.163,2.224L1.114,2.165z M3.102,2.158c0.01,0.011,0.018,0.021,0.025,0.03c-0.002,0-0.006-0.001-0.01-0.001L3.102,2.158z    M1.469,1.151C1.444,1.131,1.424,1.116,1.41,1.103L1.39,1.069c0,0,0,0,0.002-0.001c0.016,0.005,0.035,0.014,0.061,0.026   l0.029,0.058C1.479,1.152,1.475,1.151,1.469,1.151 M1.524,1.093C1.545,1.127,1.542,1.145,1.52,1.152   c0.008-0.02,0.018-0.03-0.008-0.062c0.006-0.004,0-0.017-0.021-0.039C1.549,1.091,1.576,1.111,1.524,1.093 M0.672,0.454   C0.658,0.435,0.649,0.419,0.635,0.4C0.678,0.443,0.699,0.467,0.672,0.454 M2.75,0.808l0.029-0.005   c0.004,0.004,0.01,0.009,0.016,0.014c-0.018-0.001-0.035,0-0.051,0.006C2.748,0.817,2.748,0.813,2.75,0.808 M8.44,6.16l-0.138-0.24   c0.025,0.063,0.031,0.104,0.021,0.127C8.229,5.958,8.141,5.873,8.063,5.791c0.013-0.006,0.023-0.018,0.031-0.029   C8.057,5.748,7.998,5.707,7.942,5.657c0.043,0.009,0.073,0.011,0.073-0.013C8.012,5.621,7.95,5.6,7.862,5.56l0.034-0.205   L7.827,5.378L7.403,4.786c-0.367-0.198-0.742-0.331-1.182-0.62C6.164,4.097,6.106,4.029,6.043,3.965   c0.055,0,0.143,0.109,0.193,0.197C6.175,4.026,6.093,3.909,5.998,3.801c0.023-0.045,0.037-0.104,0.088-0.147   C6.141,3.917,6.58,4.055,6.859,4.379C6.713,4.211,6.797,4.197,6.854,4.221L6.22,3.782C6.316,3.71,6.167,3.606,6.06,3.433   C6.003,3.704,5.55,3.147,5.277,2.989c0.039-0.068,0.15-0.079,0.406,0.197C5.507,2.77,5.107,3.013,4.915,2.625   c0.068,0.062,0.096,0.104,0.15,0.101C4.862,2.628,4.518,2.23,4.653,2.265l0.07,0.062C4.647,2.252,4.559,2.166,4.459,2.075   C4.404,1.916,4.357,1.786,4.314,1.852L4.296,1.924C4.151,1.795,3.999,1.663,3.851,1.547c-0.092-0.071-0.18-0.136-0.262-0.192   C3.587,1.347,3.585,1.34,3.585,1.332c-0.062-0.008-0.189-0.116-0.33-0.23C3.319,1.07,3.392,1.04,3.421,1.037   c0,0-0.139-0.026-0.32-0.059C2.986,0.893,2.876,0.826,2.792,0.819C2.788,0.814,2.784,0.809,2.78,0.804l0.438-0.061   C2.978,0.7,2.898,0.609,2.792,0.485L2.739,0.748C2.651,0.631,2.557,0.522,2.442,0.449C2.514,0.388,2.616,0.374,2.78,0.47   C2.694,0.367,2.589,0.242,2.362,0.101L1.716,0.778c0.018,0.013,0.039,0.028,0.061,0.045c-0.01-0.021-0.018-0.052-0.018-0.085   l0.566-0.593c0.002,0.023,0.002,0.048,0,0.072L2.319,0.214L2.21,0.328C2.202,0.307,2.196,0.291,2.204,0.287L1.895,0.61   c0.004,0.015,0.008,0.023,0.012,0.035L1.829,0.728l0.119,0.034c0.049,0.125,0.08,0.16,0.158,0.322   C2.085,1.08,2.065,1.075,2.04,1.066C2.067,1.08,2.091,1.091,2.114,1.102c0.021,0.044,0.045,0.094,0.072,0.157   c-0.025-0.045-0.004-0.08,0.037-0.103c0.125,0.063,0.197,0.108,0.26,0.147C2.426,1.355,2.362,1.416,2.315,1.39l0.586,0.245   C2.768,1.561,2.723,1.768,2.756,1.913c-0.002-0.05,0.135,0.108,0.266,0.258c-0.045-0.01-0.104-0.023-0.18-0.045l-0.043-0.14   C2.613,1.946,2.58,1.966,2.248,1.76c0.305,0.125-0.125-0.25,0.225-0.122C1.912,1.005,1.368,1.096,1.209,0.659   c-0.014,0-0.021,0-0.027,0.001v0.002v0.002V0.662L1.157,0.667C1.169,0.664,1.173,0.661,1.182,0.66V0.633   C0.95,0.453,0.703,0.354,0.59,0.198L0,0.752c0.041,0.062,0.055,0.133,0.064,0.219C0.191,1,0.197,0.957,0.162,0.887   c0.107,0.112,0.219,0.228,0.334,0.338c0.023,0.123,0.066,0.266,0.156,0.431L0.578,1.658C0.562,1.695,0.594,1.736,0.56,1.743   C0.622,1.76,0.64,1.727,0.656,1.667C0.683,1.716,0.713,1.766,0.75,1.819c-0.037-0.056-0.055-0.05-0.09-0.104   C0.724,1.89,0.873,2,0.988,2.163l-0.02,0.008l0.021-0.007c0.029,0.043,0.057,0.091,0.08,0.144L0.962,2.411   c0.01,0.01,0.018,0.02,0.027,0.03c0.008,0.024,0.012,0.051,0.012,0.08C1.024,2.523,1.058,2.54,1.097,2.563   C1.154,2.627,1.206,2.684,1.242,2.71L1.201,2.635c0.039,0.03,0.082,0.062,0.125,0.096C1.449,2.858,1.564,2.963,1.4,2.942   c0.158,0.029,0.248,0.14,0.336,0.272c-0.002,0-0.002-0.001-0.004-0.001c0.002,0,0.004,0.001,0.004,0.002   c0.111,0.168,0.221,0.373,0.457,0.506L2.088,3.766c0.051,0.039,0.148,0.108,0.229,0.19c0.006,0.01,0.012,0.021,0.023,0.037   C2.319,3.984,2.272,3.968,2.227,3.951C2.161,3.927,2.098,3.902,2.098,3.902C2.176,3.955,2.241,4.018,2.293,4.09   C2.248,4.055,2.207,4.018,2.184,3.994l0.207,0.25c0.1,0.177,0.18,0.367,0.336,0.5C2.532,4.505,2.5,4.431,2.522,4.402l0.186,0.227   C2.745,4.575,2.843,4.625,2.95,4.694c0.076,0.218-0.006,0.373,0.406,0.82C3.272,5.41,3.176,5.227,3.233,5.229L3.29,5.258   c0.109,0.159,0.242,0.378,0.277,0.506c0.289,0.295,0.217,0.157,0.184,0.058c0.164,0.137,0.301,0.24,0.471,0.398L4.216,6.226   c0.42,0.564,0.314-0.002,0.725,0.549L4.632,6.68L4.911,6.91L4.77,6.947c0.34,0.211,0.402,0.32,0.652,0.608   C5.414,7.437,5.6,7.446,5.844,7.675c0.119,0.207-0.166-0.012,0.188,0.307C5.938,7.964,5.829,7.949,5.749,7.845l0.129,0.08   L5.814,7.864L5.73,7.815C5.712,7.789,5.697,7.757,5.683,7.72C5.65,7.729,5.585,7.708,5.542,7.707l-0.141-0.08l0.129,0.08   c-0.004,0-0.01,0-0.014,0C5.643,7.933,5.952,8.155,6.08,8.269C6.033,8.221,5.978,8.164,5.961,8.123c0,0,0.152,0.092,0.307,0.178   c0.064,0.037,0.125,0.072,0.178,0.104l2.119-2.119C8.526,6.246,8.483,6.203,8.44,6.16"/>
</g>
<g>
	<path fill="#2D393A" d="M8.666,5.847c0.061-0.027,0.143-0.072,0.25-0.145L8.666,5.847z"/>
	<path fill="#2D393A" d="M4.426,5.75l0.029-0.199C4.284,5.762,4.4,5.703,4.426,5.75"/>
</g>
<path fill="#2D393A" d="M0.672,11.123l0.006,0.006L0.672,11.123z"/>
<g>
	<path fill="#2D393A" d="M0.789,9.773C0.773,9.787,0.762,9.798,0.752,9.812C0.762,9.8,0.774,9.787,0.789,9.773 M1.88,8.685   C1.882,8.69,1.882,8.696,1.886,8.701L1.817,8.736L1.88,8.685z M2.733,7.562C2.686,7.666,2.608,7.806,2.612,7.888L2.493,7.953   C2.581,7.77,2.684,7.637,2.733,7.562 M2.831,10.703c0.06,0.012,0.106-0.015,0.147-0.054c-0.004,0.017-0.013,0.037-0.029,0.062   c-0.047-0.025-0.075,0.08-0.139,0.015L2.831,10.703z M2.856,7.669C2.86,7.671,2.862,7.68,2.862,7.69   C2.844,7.705,2.829,7.716,2.813,7.731L2.856,7.669z M3.163,7.333c0.005,0,0.01,0,0.016,0C3.157,7.378,3.129,7.428,3.1,7.479   c-0.062,0.056-0.125,0.11-0.187,0.165C2.948,7.553,3.038,7.432,3.163,7.333 M2.895,10.781l-0.02-0.014   c0.015-0.012,0.029-0.014,0.044-0.016C2.91,10.762,2.905,10.771,2.895,10.781 M3.38,10.494c0.036-0.007,0.06-0.035,0.074-0.068   l0.132-0.12c0.014-0.007,0.027-0.019,0.042-0.025c-0.065,0.086-0.166,0.224-0.253,0.22L3.38,10.494z M6.122,4.091   C6.111,4.112,6.103,4.124,6.103,4.124c-0.041,0.021-0.061,0.02-0.068,0.004C6.056,4.124,6.085,4.112,6.122,4.091 M0.051,10.462   c0.109-0.021,0.232-0.06,0.112,0.123C0.154,10.595,0.15,10.6,0.15,10.6c0,0.003,0.002,0.004,0.004,0.005l0,0   c0,0,0.004,0.004,0.006,0.006l0.025,0.025c0,0-0.019-0.02-0.025-0.025l-0.006-0.006c-0.002-0.001-0.014-0.014-0.014-0.014   s-0.021,0.021-0.029,0.029c0.002,0.004,0.006-0.047,0.009-0.043c0.001,0,0.003-0.05,0.004-0.05H0.123   c-0.001,0-0.002,0.052-0.003,0.05c-0.001,0,0.003,0.027,0.003,0.027l0.007,0.02v0.006c0-0.002-0.006,0-0.007-0.002   c-0.003-0.002-0.01-0.004-0.012-0.008c-0.002,0.002-0.006,0.006-0.006,0.006l0.537,0.517c0.002-0.003,0.029-0.021,0.03-0.021   l-0.004-0.004c0,0-0.001,0,0,0l0,0c0.001,0.002,0.002,0.004,0.003,0.004s0.001,0,0.001,0l0.004,0.004l-0.004-0.004   c0,0-0.013,0.013-0.008,0.01c0.019-0.006,0.005,0.016-0.007,0.033c0.005,0.004,0.006,0.013,0.01,0.018l0.068-0.104   c0-0.002,0-0.002,0.002-0.002v-0.002c0.047-0.033,0.099-0.068,0.152-0.104c0.002,0.057-0.068,0.174-0.164,0.279   c0.02,0.021,0.041,0.043,0.061,0.063c0.177-0.044,0.154-0.168,0.308-0.351l0.704,0.633l0.068-0.069   c0.089-0.06,0.107-0.024,0.05,0.028l0.182-0.145c0.009,0.008,0.017,0.012,0.022,0.02c-0.006-0.012-0.008-0.02-0.01-0.027   l0.076-0.06c0.094-0.005,0.235,0.017,0.18-0.142l0.014-0.011c0.006,0.004,0.012,0.009,0.016,0.015   c-0.013,0.03-0.011,0.043,0.016,0.027c0.007,0.016,0.015,0.028,0.033,0.038c-0.047-0.089-0.035-0.133,0.049-0.159l0.011,0.021   c0.06-0.081,0.121-0.124,0.19-0.162c0.438,0.031,0.192-0.256,0.897-0.559l-0.26,0.244c0.292,0.006,0.474-0.214,0.858-0.373   c-0.107,0.012-0.758,0.252-0.553-0.015c0.145-0.088,0.301-0.207,0.417-0.326c0.079,0.028,0.22-0.108,0.402-0.257l0.077,0.128   C4.734,9.599,4.67,9.553,4.762,9.396C5.024,9.205,5.149,9.251,5.27,9.28c0.42-0.308-0.395,0.082,0.065-0.325   c0.367-0.232,0.567-0.469,0.901-0.869C6.5,7.928,6.255,8.189,6.365,8.15l0.128-0.264c0.051-0.04,0.058,0.001,0.062,0.021   c0.143-0.181-0.082-0.125,0.161-0.385C6.682,7.339,7.42,7.225,7.627,6.796C7.734,6.755,7.648,6.9,7.711,6.919   c0.322-0.436,0.328-0.424,0.502-0.726c0.025-0.026,0.055-0.058,0.082-0.085L6.176,3.99C6.168,4.003,6.158,4.02,6.153,4.032   C6.147,3.977,6.078,3.993,6.094,3.908l-0.01-0.011c-0.048,0.085-0.1,0.175-0.09,0.212C5.949,4.186,5.908,4.269,5.82,4.376   C5.788,4.277,5.709,4.225,5.875,3.98c0,0-0.094,0.139-0.186,0.277C5.597,4.399,5.51,4.542,5.51,4.542   C5.483,4.546,5.41,4.59,5.346,4.624l0.049-0.075L5.311,4.62l0.002,0.022c-0.051,0.024-0.088,0.035-0.074,0   c-0.141,0.121-0.254,0.32-0.379,0.53C4.739,5.383,4.612,5.609,4.431,5.775C4.429,5.805,4.41,5.856,4.356,5.944   C4.184,6.135,4.004,6.304,3.84,6.505L3.831,6.494L3.795,6.561C3.75,6.619,3.706,6.679,3.664,6.746L3.613,6.757   C3.529,6.855,3.541,6.876,3.582,6.88C3.552,6.935,3.523,6.99,3.495,7.05L3.342,7.125C3.341,7.082,3.322,7.046,3.285,7.02   C3.31,7,3.31,6.979,3.259,6.943c-0.014,0.012-0.026,0.025-0.041,0.04c-0.103-0.04-0.254-0.046-0.396-0.021   c0.022,0.033,0.049,0.062-0.121,0.306c0.092-0.031,0.423-0.28,0.445-0.207C3.093,7.119,3.042,7.179,2.988,7.225   c0.05-0.056,0.102-0.093,0.149-0.121c-0.003,0.007-0.005,0.015-0.01,0.022C2.884,7.433,2.878,7.328,2.71,7.425   c0.051-0.008,0.059,0.021,0.045,0.068c-0.011-0.012-0.055,0-0.145,0.035c0.115,0.165-0.281,0.486-0.541,0.768L2.063,8.294v0.011   c-0.136,0.146-0.228,0.28-0.188,0.373L1.826,8.707L1.771,8.755L1.679,8.802c0.047-0.04,0.042-0.062,0.09-0.102   c-0.115,0.051-0.17,0.104-0.201,0.16C1.535,8.828,1.501,8.792,1.467,8.757c0.011-0.006,0.028-0.02,0.046-0.033   C1.499,8.723,1.48,8.73,1.452,8.744C1.446,8.738,1.44,8.733,1.434,8.727L1.432,8.731c0-0.001-0.031-0.026-0.029-0.026   c0.006,0-0.004-0.012,0.002-0.01c0.015,0.006,0.027,0.004,0.046,0.01c0.032,0.01,0.056,0.016,0.065,0.018   c0-0.001,0.002-0.001,0.002-0.002C1.514,8.719,1.481,8.71,1.446,8.699C1.425,8.693,1.409,8.688,1.395,8.684   C1.391,8.682,1.391,8.682,1.389,8.682L1.386,8.686c0,0-0.007-0.006-0.005-0.005c0.003,0.001,0.005,0.001,0.008,0.001l0.059-0.06   c0,0,0.057,0.057,0.062,0.063c0.009,0.008,0.031,0.004,0.042,0.009C1.544,8.699,1.531,8.708,1.519,8.718   c0,0.001,0.002,0.001,0.002,0.001c0.144-0.093,0.282-0.194,0.285-0.333L1.531,8.521c0.16-0.258,0.312-0.62,0.604-0.846   c-0.217,0.018-0.049,0.07-0.349,0.137c0.304-0.014-0.672,0.65-0.264,0.55C1.38,8.384,1.289,8.439,1.2,8.503l0.357,0.375   C1.535,8.927,1.528,8.979,1.518,9.035c-0.05,0.019-0.096,0.038-0.127,0.063c-0.053,0.021,0.033-0.08,0.073-0.143   C1.281,9.069,1.229,9.123,1.227,9.16L1.196,9.145L1.149,9.186l0.092,0.009C1.278,9.24,1.369,9.277,1.208,9.462   C1.159,9.464,1.14,9.427,1.117,9.399l0.022-0.03c-0.01,0.01-0.016,0.019-0.023,0.029C1.085,9.357,1.047,9.333,0.914,9.455   c-0.116,0.047-0.315,0.482-0.581,0.777l-0.001-0.004c-0.001,0.002-0.003,0.007-0.004,0.01C0.244,10.335,0.151,10.416,0.051,10.462"/>
	<path fill="#2D393A" d="M9.439,4.93C9.411,5.008,9.315,5.075,9.193,5.134C9.254,5.062,9.334,4.99,9.439,4.93"/>
	<path fill="#2D393A" d="M1.514,8.687C1.508,8.681,1.452,8.625,1.452,8.625L1.393,8.685c0.002,0,0.002,0,0.004,0.001   C1.413,8.69,1.43,8.695,1.449,8.701c0.036,0.012,0.069,0.021,0.073,0.021c0.013-0.01,0.025-0.02,0.033-0.024   C1.544,8.689,1.522,8.694,1.514,8.687"/>
	<polygon fill="#2D393A" points="0.669,11.119 0.669,11.119 0.672,11.123  "/>
	<line fill="#2D393A" x1="0.672" y1="11.123" x2="0.672" y2="11.123"/>
	<polygon fill="#2D393A" points="0.672,11.123 0.669,11.119 0.669,11.119  "/>
	<path fill="#2D393A" d="M6.135,3.812C6.12,3.839,6.104,3.871,6.085,3.901l0.011,0.012C6.102,3.888,6.112,3.856,6.135,3.812"/>
	<path fill="#2D393A" d="M1.408,8.695c-0.006-0.002,0.004,0.01-0.002,0.01C1.404,8.703,1.435,8.73,1.435,8.731l0.002-0.004   c0.006,0.006,0.012,0.011,0.018,0.017c0.027-0.015,0.047-0.02,0.061-0.02C1.518,8.723,1.518,8.723,1.52,8.721   C1.51,8.719,1.487,8.714,1.455,8.703C1.436,8.698,1.423,8.699,1.408,8.695"/>
	<rect x="0.703" y="11.065" fill="#2D393A" width="0.001" height="0.128"/>
	<path fill="#2D393A" d="M8.896,5.653C8.864,5.658,8.844,5.648,8.825,5.638C8.809,5.678,8.824,5.695,8.896,5.653"/>
	<path fill="#2D393A" d="M4.42,5.787l0.012-0.013c0-0.01-0.002-0.019-0.006-0.024L4.42,5.787z"/>
	<path fill="#2D393A" d="M4.223,10.083l0.225-0.067L4.442,9.975C4.383,9.97,4.33,10.007,4.223,10.083"/>
	<path fill="#2D393A" d="M5.527,3.989c0.015,0.036,0.127,0.007,0.172,0.026l0.104-0.16C5.717,3.905,5.573,4.018,5.527,3.989"/>
	<path fill="#2D393A" d="M5.698,4.015L5.543,4.254C5.725,4.084,5.737,4.032,5.698,4.015"/>
</g>
<polygon fill="#2D393A" points="4.765,4.735 4.821,4.566 4.707,4.852 "/>
<g>
	<path fill="#2D393A" d="M3.864,5.598C3.956,5.466,4.08,5.355,4.272,5.242c0.037-0.13-0.193,0.032-0.135-0.084   C4.009,5.301,3.934,5.456,3.864,5.598"/>
	<path fill="#2D393A" d="M3.864,5.598c-0.047,0.069-0.09,0.143-0.123,0.228C3.785,5.76,3.823,5.682,3.864,5.598"/>
	<path fill="#2D393A" d="M4.965,4.659l0.147-0.008c0.024-0.022,0.052-0.049,0.079-0.075C5.16,4.576,5.092,4.565,4.965,4.659"/>
	<path fill="#2D393A" d="M5.117,4.651H5.111C5.025,4.733,4.965,4.79,4.939,4.814C4.962,4.794,5.016,4.744,5.117,4.651"/>
	<path fill="#2D393A" d="M5.211,4.557c-0.007,0.007-0.013,0.012-0.02,0.019C5.206,4.575,5.213,4.573,5.211,4.557"/>
	<path fill="#2D393A" d="M5.574,4.276L5.396,4.548l0.227-0.191C5.6,4.343,5.534,4.353,5.574,4.276"/>
	<path fill="#2D393A" d="M3.91,5.865c0.131-0.103,0.262-0.216,0.376-0.331c-0.005-0.039,0.008-0.13-0.119,0.001   C4.109,5.649,4.018,5.748,3.916,5.856C3.92,5.853,3.926,5.848,3.93,5.845C3.924,5.852,3.916,5.858,3.91,5.865"/>
	<path fill="#2D393A" d="M4.635,5.111C4.63,5.12,4.624,5.129,4.619,5.135C4.637,5.13,4.649,5.122,4.635,5.111"/>
</g>
<polygon fill="#2D393A" points="2.823,6.962 2.816,6.945 2.793,6.966 "/>
<g>
	<path fill="#2D393A" d="M4.321,5.527c0.104-0.076,0.141-0.146,0.172-0.219C4.431,5.381,4.364,5.457,4.286,5.534   C4.289,5.552,4.293,5.56,4.321,5.527"/>
	<path fill="#2D393A" d="M3.464,6.164c0.062-0.031,0.128-0.072,0.195-0.115C3.591,6.071,3.463,6.128,3.464,6.164"/>
	<path fill="#2D393A" d="M4.569,5.146C4.573,5.14,4.577,5.135,4.58,5.129C4.535,5.144,4.546,5.147,4.569,5.146"/>
	<path fill="#2D393A" d="M4.569,5.146c-0.037,0.057-0.056,0.11-0.078,0.162c0.051-0.06,0.095-0.119,0.129-0.173   C4.604,5.142,4.584,5.146,4.569,5.146"/>
	<path fill="#2D393A" d="M3.227,6.576l0.078-0.093C3.196,6.569,3.1,6.612,2.921,6.688C2.81,6.86,2.804,6.914,2.817,6.945l0.43-0.406   L3.227,6.576z"/>
	<path fill="#2D393A" d="M3.672,6.123C3.576,6.192,3.656,6.101,3.683,6.06C3.681,6.055,3.68,6.046,3.677,6.042H3.674L3.305,6.484   C3.398,6.412,3.5,6.306,3.672,6.123"/>
	<path fill="#2D393A" d="M3.714,6.093c0.002,0.001,0.003,0.002,0.005,0.003C3.713,6.101,3.708,6.103,3.701,6.109   C3.705,6.103,3.709,6.098,3.714,6.093 M3.719,6.427c0.247-0.256,0.145-0.262,0.266-0.44c-0.379,0.406,0-0.073-0.205,0.05   L3.774,6.031c-0.008-0.008,0.076-0.1,0.137-0.165C3.909,5.869,3.905,5.871,3.903,5.873c0.004-0.004,0.01-0.01,0.015-0.016   C3.848,5.916,3.776,6.01,3.714,6.06C3.71,6.061,3.708,6.062,3.704,6.064c0,0.002-0.012,0-0.014,0.002c0.002,0.004,0,0.01,0,0.014   c0.002,0.008,0.004,0.018,0.004,0.027C3.692,6.108,3.69,6.109,3.69,6.11C3.688,6.248,3.52,6.474,3.719,6.427"/>
	<path fill="#2D393A" d="M3.91,5.865c0.006-0.007,0.014-0.014,0.02-0.02C3.926,5.848,3.92,5.853,3.916,5.856   C3.911,5.861,3.907,5.867,3.901,5.873C3.905,5.871,3.908,5.867,3.91,5.865"/>
	<path fill="#2D393A" d="M3.69,6.103c-0.007,0.008-0.012,0.013-0.018,0.02c0.006-0.004,0.01-0.007,0.017-0.012   C3.689,6.107,3.69,6.105,3.69,6.103"/>
</g>
<polygon fill="#2D393A" points="2.719,6.97 2.69,6.85 2.598,7.148 "/>
<polygon fill="#2D393A" points="2.287,7.414 2.24,7.332 2.162,7.486 "/>
<g>
	<path fill="#2D393A" d="M0.649,11.175l0.015,0.016V11.19C0.658,11.185,0.655,11.18,0.649,11.175L0.649,11.175"/>
	<polyline fill="#2D393A" points="0.649,11.175 0.649,11.175 0.635,11.162 0.649,11.175  "/>
	<path fill="#2D393A" d="M0.651,11.173c-0.006-0.004-0.011-0.01-0.015-0.014c-0.001,0-0.001,0-0.001,0   C0.64,11.166,0.645,11.169,0.651,11.173L0.651,11.173"/>
	<polyline fill="#2D393A" points="1.528,8.725 1.527,8.725 1.526,8.725 1.528,8.725  "/>
	<path fill="#2D393A" d="M0.664,11.189c0.02,0.021,0.041,0.043,0.061,0.063c0.001,0,0.001-0.002,0.001-0.002   C0.705,11.23,0.685,11.208,0.664,11.189L0.664,11.189z"/>
	<path fill="#2D393A" d="M1.398,8.164L1.235,8.361C1.329,8.26,1.381,8.244,1.443,8.207C1.422,8.195,1.373,8.201,1.398,8.164"/>
	<path fill="#2D393A" d="M1.866,8.22c0.082,0.052,0.186-0.098,0.315-0.248C2.173,7.98,2.164,7.989,2.157,7.996   C2.105,7.861,1.985,8.041,1.866,8.22"/>
	<path fill="#2D393A" d="M2.341,7.805C2.32,7.751,2.279,7.85,2.212,7.937C2.252,7.89,2.295,7.844,2.341,7.805"/>
</g>
</svg>