<?xml version="1.0" encoding="UTF-8"?>
<!-- Generator: Adobe Illustrator 12.0.0, SVG Export Plug-In . SVG Version: 6.00 Build 51448)  -->
<!DOCTYPE svg PUBLIC "-//W3C//DTD SVG 1.1//EN" "http://www.w3.org/Graphics/SVG/1.1/DTD/svg11.dtd">
<svg version="1.1" id="Layer_1" xmlns="http://www.w3.org/2000/svg" xmlns:xlink="http://www.w3.org/1999/xlink" width="9.435" height="11.497" viewBox="0 0 9.435 11.497" overflow="visible" enable-background="new 0 0 9.435 11.497" xml:space="preserve">
<g>
	<g>
		<path fill="#2D393A" d="M4.349,5.651c-0.061,0.026-0.143,0.071-0.25,0.145L4.349,5.651z"/>
		<path fill="#2D393A" d="M8.59,5.748L8.561,5.946C8.73,5.735,8.615,5.796,8.59,5.748"/>
	</g>
	<g>
		<path fill="#2D393A" d="M6.914,4.947c0.02,0.021,0.041,0.036,0.062,0.038C6.96,4.938,6.932,4.927,6.914,4.947"/>
		<path fill="#2D393A" d="M7.087,4.76c0.012,0.044,0.025,0.064,0.041,0.078C7.119,4.795,7.104,4.761,7.087,4.76"/>
		<path fill="#2D393A" d="M4.862,4.666C4.848,4.609,4.714,4.526,4.727,4.71C4.788,4.71,4.841,4.706,4.862,4.666"/>
		<path fill="#2D393A" d="M4.46,4.784C4.446,4.759,4.427,4.73,4.401,4.697c0.002-0.005,0.002-0.01,0.004-0.014L4.53,4.736    C4.505,4.747,4.483,4.761,4.46,4.784 M4.981,4.835l0.098-0.062C5.171,4.829,5.136,4.89,5.054,4.952L5.031,4.82    c0.002,0.044,0.01,0.089,0.02,0.134C5.028,4.972,5,4.988,4.971,5.005L4.981,4.835z M7.137,4.959    C7.135,4.991,7.131,5.021,7.121,5.036c-0.004,0.006-0.01,0.006-0.016,0.005C7.113,5.005,7.121,4.979,7.137,4.959 M7.281,4.906    c0.018,0,0.033-0.001,0.053,0c-0.018,0.029-0.035,0.06-0.053,0.088C7.279,4.957,7.279,4.93,7.281,4.906 M7.561,4.935    c0.005,0.049,0.009,0.096,0,0.127C7.539,5.073,7.514,5.083,7.492,5.091c-0.004-0.001-0.006,0-0.013-0.002    C7.451,5.016,7.469,4.975,7.49,4.925C7.514,4.929,7.539,4.932,7.561,4.935 M7.66,4.944L7.611,5.041    C7.607,5.043,7.602,5.044,7.598,5.046c-0.004-0.04-0.004-0.074-0.004-0.105C7.617,4.942,7.637,4.943,7.66,4.944 M8.018,4.996    v0.056c-0.014-0.008-0.022-0.018-0.03-0.029C7.998,5.014,8.009,5.004,8.018,4.996 M8.884,6.304L8.884,6.304    c0-0.066,0.002-0.135,0.002-0.197C8.886,6.167,8.884,6.233,8.884,6.304 M8.867,7.51C8.869,7.476,8.869,7.44,8.869,7.405    C8.869,7.44,8.869,7.476,8.867,7.51 M8.852,7.515c0.002,0,0.007-0.001,0.009-0.002C8.859,7.514,8.854,7.515,8.852,7.515     M5.611,7.885C5.592,7.799,5.12,7.879,5.598,7.646C5.334,7.703,5.149,7.646,5,7.558c0.088-0.014,0.176-0.031,0.262-0.057    c0.052,0.003,0.099,0,0.144-0.007C5.43,7.515,5.46,7.526,5.498,7.528c0.002,0.033,0,0.064-0.031,0.088    C5.556,7.608,5.65,7.596,5.74,7.584C5.738,7.588,5.734,7.591,5.732,7.597C5.75,7.591,5.762,7.586,5.773,7.58    C5.906,7.563,6.031,7.55,6.139,7.56C5.884,7.62,5.66,7.702,5.611,7.885"/>
		<path fill="#2D393A" d="M0.655,4.146C0.653,4.139,0.647,4.131,0.637,4.123C0.637,4.131,0.645,4.139,0.655,4.146"/>
		<path fill="#2D393A" d="M0.512,1.477c0.033-0.057,0.074-0.008-0.025-0.05c0,0.008-0.002,0.012-0.004,0.018    C0.491,1.452,0.501,1.46,0.512,1.477"/>
		<path fill="#2D393A" d="M0.483,1.446C0.448,1.419,0.468,1.504,0.483,1.446"/>
		<path fill="#2D393A" d="M2.796,0.376C2.79,0.373,2.786,0.372,2.78,0.369c0.004,0.005,0.01,0.012,0.014,0.017L2.796,0.376z"/>
		<path fill="#2D393A" d="M4.081,5.937c0.07,0.029,0.15,0.065,0.234,0.133L4.28,6.103C4.221,6.047,4.151,5.993,4.081,5.937     M3.796,5.664c0.01,0.005,0.018,0.009,0.029,0.017C3.827,5.692,3.831,5.7,3.833,5.709C3.821,5.694,3.807,5.679,3.796,5.664     M7.382,5.046C7.46,5.074,7.527,5.17,7.587,5.292C7.514,5.232,7.445,5.152,7.382,5.046 M2.616,4.242    c0.002-0.007,0.002-0.016,0-0.028c0.01-0.007,0.021-0.012,0.035-0.016C2.745,4.285,2.813,4.36,2.858,4.425L2.616,4.242z     M4.555,3.17c0.02,0.003,0.041,0.007,0.062,0.012c0.145,0.141,0.287,0.285,0.422,0.431C4.768,3.423,4.723,3.331,4.555,3.17     M1.606,2.892c-0.029-0.04-0.062-0.083-0.094-0.125C1.59,2.82,1.666,2.862,1.733,2.878C1.805,2.975,1.909,3.043,1.954,3.17    C1.866,3.208,1.747,3.067,1.606,2.892 M3.696,2.562c0.104,0.04,0.031-0.058-0.02-0.139c0.078,0.023,0.158,0.048,0.24,0.087    C4,2.591,4.092,2.677,4.186,2.765C4.149,2.771,4.11,2.786,4.075,2.81C3.95,2.75,3.819,2.664,3.696,2.562 M1.831,2.891    C1.827,2.889,1.825,2.885,1.819,2.882c0.006-0.001,0.012-0.001,0.016-0.003C1.833,2.882,1.833,2.886,1.831,2.891 M3.432,2.958    c-0.006-0.002-0.01-0.002-0.014-0.005c0-0.002,0-0.003,0-0.005C3.423,2.951,3.427,2.954,3.432,2.958 M3.448,2.971    c0.006,0.005,0.012,0.01,0.018,0.015C3.458,2.994,3.45,2.999,3.443,3.007c-0.01-0.012-0.021-0.023-0.029-0.035    C3.425,2.971,3.436,2.971,3.448,2.971 M3.548,3.054c-0.016,0.01-0.027,0.02-0.035,0.03C3.499,3.071,3.488,3.059,3.478,3.046    C3.48,3.032,3.482,3.018,3.486,3.002C3.507,3.021,3.526,3.037,3.548,3.054 M1.11,2.065c0.018,0.019,0.037,0.036,0.057,0.053    L1.159,2.124L1.11,2.065z M3.098,2.058c0.01,0.011,0.018,0.021,0.025,0.03c-0.002,0-0.006-0.001-0.01-0.001L3.098,2.058z     M1.466,1.051c-0.025-0.02-0.045-0.035-0.059-0.048l-0.02-0.034c0,0,0,0,0.002-0.001C1.405,0.973,1.424,0.982,1.45,0.994    l0.029,0.058C1.475,1.052,1.471,1.051,1.466,1.051 M1.52,0.993c0.021,0.034,0.018,0.052-0.004,0.059    c0.008-0.02,0.018-0.03-0.008-0.062c0.006-0.004,0-0.017-0.021-0.039C1.546,0.991,1.573,1.011,1.52,0.993 M0.669,0.354    C0.655,0.335,0.646,0.319,0.632,0.3C0.675,0.343,0.696,0.367,0.669,0.354 M2.747,0.708l0.029-0.005    c0.004,0.004,0.01,0.009,0.016,0.014c-0.018-0.001-0.035,0-0.051,0.006C2.745,0.717,2.745,0.713,2.747,0.708 M8.436,6.06    l-0.137-0.24C8.324,5.882,8.33,5.923,8.32,5.946C8.225,5.858,8.137,5.772,8.059,5.69C8.072,5.685,8.082,5.673,8.09,5.661    C8.053,5.647,7.994,5.606,7.939,5.557c0.043,0.009,0.073,0.011,0.073-0.013C8.008,5.521,7.947,5.5,7.859,5.46l0.034-0.205    L7.824,5.278L7.4,4.686c-0.367-0.198-0.742-0.331-1.183-0.62C6.16,3.997,6.102,3.929,6.039,3.865c0.056,0,0.144,0.109,0.193,0.197    C6.171,3.926,6.089,3.809,5.994,3.701c0.023-0.045,0.037-0.104,0.088-0.147c0.056,0.263,0.494,0.401,0.773,0.725    C6.709,4.111,6.793,4.097,6.849,4.121L6.216,3.682c0.096-0.072-0.053-0.176-0.16-0.349C6,3.604,5.546,3.047,5.273,2.889    c0.039-0.068,0.15-0.079,0.406,0.197C5.503,2.67,5.103,2.913,4.911,2.525c0.068,0.062,0.096,0.104,0.15,0.101    C4.858,2.528,4.514,2.13,4.649,2.165l0.07,0.062C4.643,2.152,4.555,2.066,4.455,1.975C4.4,1.816,4.353,1.686,4.31,1.752    L4.292,1.824C4.147,1.695,3.995,1.563,3.847,1.447c-0.092-0.071-0.18-0.136-0.262-0.192C3.583,1.247,3.581,1.24,3.581,1.232    c-0.062-0.008-0.189-0.116-0.33-0.23C3.315,0.97,3.388,0.94,3.417,0.937c0,0-0.139-0.026-0.32-0.059    C2.982,0.793,2.872,0.726,2.788,0.719C2.784,0.714,2.78,0.709,2.776,0.704l0.442-0.062c-0.24-0.043-0.32-0.134-0.426-0.258    L2.739,0.647C2.651,0.53,2.557,0.421,2.442,0.348C2.514,0.287,2.616,0.273,2.78,0.369C2.694,0.266,2.589,0.141,2.362,0    L1.716,0.677C1.734,0.69,1.755,0.705,1.777,0.722C1.767,0.701,1.759,0.67,1.759,0.637l0.566-0.593    c0.002,0.023,0.002,0.048,0,0.072L2.319,0.113L2.21,0.227C2.202,0.206,2.196,0.19,2.204,0.186L1.895,0.509    c0.004,0.015,0.008,0.023,0.012,0.035L1.829,0.627l0.119,0.034c0.049,0.125,0.08,0.16,0.158,0.322    C2.085,0.979,2.065,0.974,2.04,0.965C2.067,0.979,2.091,0.99,2.114,1.001c0.021,0.044,0.045,0.094,0.072,0.157    c-0.025-0.045-0.004-0.08,0.037-0.103c0.125,0.063,0.197,0.108,0.26,0.147C2.426,1.254,2.362,1.315,2.315,1.289l0.586,0.245    C2.768,1.46,2.723,1.667,2.756,1.812C2.754,1.762,2.891,1.92,3.022,2.07c-0.045-0.01-0.104-0.023-0.18-0.045l-0.043-0.14    c-0.186-0.04-0.219-0.02-0.551-0.226c0.305,0.125-0.125-0.25,0.225-0.122C1.912,0.904,1.368,0.995,1.209,0.558    c-0.014,0-0.021,0-0.027,0.001v0.002v0.002V0.561L1.157,0.566C1.169,0.563,1.173,0.56,1.182,0.559V0.532    C0.95,0.352,0.703,0.253,0.59,0.097L0,0.651C0.041,0.713,0.055,0.784,0.064,0.87c0.127,0.029,0.133-0.014,0.098-0.084    c0.107,0.112,0.219,0.228,0.334,0.338C0.519,1.247,0.562,1.39,0.652,1.555L0.578,1.557C0.562,1.594,0.594,1.635,0.56,1.642    c0.062,0.017,0.08-0.016,0.096-0.076C0.683,1.615,0.713,1.665,0.75,1.718c-0.037-0.056-0.055-0.05-0.09-0.104    c0.064,0.175,0.213,0.285,0.328,0.448L0.968,2.07l0.021-0.007c0.029,0.043,0.057,0.091,0.08,0.144L0.962,2.31    c0.01,0.01,0.018,0.02,0.027,0.03c0.008,0.024,0.012,0.051,0.012,0.08c0.023,0.002,0.057,0.019,0.096,0.042    c0.057,0.064,0.109,0.121,0.145,0.147L1.201,2.534C1.24,2.564,1.283,2.596,1.326,2.63C1.449,2.757,1.564,2.862,1.4,2.841    c0.158,0.029,0.248,0.14,0.336,0.272c-0.002,0-0.002-0.001-0.004-0.001c0.002,0,0.004,0.001,0.004,0.002    C1.847,3.282,1.957,3.487,2.193,3.62L2.088,3.665c0.051,0.039,0.148,0.108,0.229,0.19c0.006,0.01,0.012,0.021,0.023,0.037    C2.319,3.883,2.272,3.867,2.227,3.85C2.161,3.826,2.098,3.801,2.098,3.801c0.078,0.053,0.143,0.116,0.195,0.188    C2.248,3.954,2.207,3.917,2.184,3.893l0.207,0.25c0.1,0.177,0.18,0.367,0.336,0.5C2.532,4.404,2.5,4.33,2.522,4.301l0.186,0.227    C2.745,4.474,2.843,4.524,2.95,4.593c0.076,0.218-0.006,0.373,0.406,0.82c-0.084-0.104-0.18-0.287-0.123-0.285L3.29,5.157    c0.109,0.159,0.242,0.378,0.277,0.506c0.289,0.295,0.217,0.158,0.184,0.058c0.164,0.138,0.301,0.24,0.471,0.398L4.216,6.125    c0.42,0.563,0.314-0.002,0.725,0.549L4.632,6.579l0.279,0.23L4.77,6.846c0.34,0.211,0.402,0.32,0.652,0.608    C5.414,7.336,5.6,7.345,5.844,7.573C5.963,7.78,5.678,7.562,6.033,7.881C5.938,7.862,5.83,7.848,5.75,7.744l0.129,0.081    L5.814,7.763L5.73,7.714C5.712,7.688,5.697,7.657,5.683,7.619C5.65,7.628,5.585,7.606,5.542,7.604l-0.141-0.08l0.129,0.082    c-0.004,0-0.011-0.002-0.015,0C5.643,7.832,5.953,8.054,6.08,8.168C6.033,8.12,5.978,8.062,5.961,8.022    c0,0,0.151,0.09,0.307,0.178c0.063,0.037,0.125,0.072,0.179,0.103l2.119-2.12C8.523,6.146,8.479,6.103,8.436,6.06"/>
	</g>
	<g>
		<path fill="#2D393A" d="M8.664,5.747c0.061-0.027,0.142-0.072,0.25-0.145L8.664,5.747z"/>
		<path fill="#2D393A" d="M4.423,5.649l0.029-0.199C4.281,5.662,4.396,5.603,4.423,5.649"/>
	</g>
	<path fill="#2D393A" d="M0.669,11.022l0.006,0.006L0.669,11.022z"/>
	<g>
		<path fill="#2D393A" d="M0.786,9.673C0.77,9.687,0.759,9.698,0.749,9.712C0.759,9.7,0.77,9.687,0.786,9.673 M1.877,8.585    C1.879,8.59,1.879,8.596,1.883,8.601L1.814,8.636L1.877,8.585z M2.729,7.462C2.682,7.565,2.604,7.706,2.608,7.788L2.489,7.853    C2.578,7.67,2.68,7.537,2.729,7.462 M2.828,10.603c0.06,0.012,0.106-0.015,0.147-0.054c-0.004,0.017-0.013,0.037-0.029,0.062    c-0.047-0.025-0.075,0.08-0.139,0.015L2.828,10.603z M2.852,7.569C2.856,7.571,2.858,7.58,2.858,7.59    C2.84,7.604,2.825,7.616,2.809,7.631L2.852,7.569z M3.16,7.233c0.005,0,0.01,0,0.016,0c-0.022,0.045-0.05,0.095-0.079,0.146    C3.035,7.435,2.972,7.489,2.91,7.544C2.944,7.453,3.035,7.332,3.16,7.233 M2.891,10.681l-0.02-0.014    c0.015-0.012,0.029-0.014,0.044-0.016C2.907,10.662,2.901,10.671,2.891,10.681 M3.377,10.394c0.036-0.007,0.06-0.035,0.074-0.068    l0.132-0.12c0.014-0.007,0.027-0.019,0.042-0.025c-0.065,0.086-0.166,0.224-0.253,0.22L3.377,10.394z M6.119,3.991    C6.109,4.012,6.1,4.024,6.1,4.024c-0.041,0.021-0.062,0.02-0.067,0.004C6.052,4.024,6.082,4.012,6.119,3.991 M0.048,10.362    c0.109-0.021,0.232-0.06,0.112,0.123C0.151,10.495,0.147,10.5,0.147,10.5c0,0.003,0.002,0.004,0.004,0.005l0,0    c0,0,0.004,0.004,0.006,0.006l0.025,0.025c0,0-0.019-0.02-0.025-0.025l-0.006-0.006c-0.002-0.001-0.014-0.014-0.014-0.014    s-0.021,0.021-0.029,0.029c0.002,0.004,0.006-0.047,0.009-0.043c0.001,0,0.003-0.05,0.004-0.05H0.12    c-0.001,0-0.002,0.052-0.003,0.05c-0.001,0,0.003,0.027,0.003,0.027l0.007,0.02v0.006c0-0.002-0.006,0-0.007-0.002    c-0.003-0.002-0.01-0.004-0.012-0.008c-0.002,0.002-0.006,0.006-0.006,0.006l0.537,0.517c0.002-0.003,0.029-0.021,0.03-0.021    l-0.004-0.004c0,0-0.001,0,0,0l0,0c0.001,0.002,0.002,0.004,0.003,0.004c0.001,0,0.001,0,0.001,0l0.004,0.004l-0.004-0.004    c0,0-0.013,0.013-0.008,0.01c0.019-0.006,0.005,0.016-0.007,0.033c0.005,0.004,0.006,0.013,0.01,0.018l0.068-0.104    c0-0.002,0-0.002,0.002-0.002v-0.002c0.047-0.033,0.099-0.068,0.152-0.104c0.002,0.057-0.068,0.174-0.164,0.279    c0.02,0.021,0.041,0.043,0.061,0.063c0.177-0.044,0.154-0.168,0.308-0.351l0.704,0.633l0.068-0.069    c0.089-0.06,0.107-0.024,0.05,0.028l0.182-0.145c0.009,0.008,0.017,0.012,0.022,0.02c-0.006-0.012-0.008-0.02-0.01-0.027    l0.076-0.06c0.094-0.005,0.235,0.017,0.18-0.142l0.014-0.011c0.006,0.004,0.012,0.009,0.016,0.015    c-0.013,0.03-0.011,0.043,0.016,0.027c0.007,0.016,0.015,0.028,0.033,0.038c-0.047-0.089-0.035-0.133,0.049-0.159l0.011,0.021    c0.06-0.081,0.121-0.124,0.19-0.162c0.438,0.031,0.192-0.256,0.897-0.559l-0.26,0.244c0.292,0.006,0.474-0.214,0.858-0.373    c-0.107,0.012-0.758,0.252-0.553-0.015c0.145-0.088,0.301-0.207,0.417-0.326c0.079,0.028,0.22-0.108,0.402-0.257L4.53,9.715    c0.201-0.216,0.137-0.262,0.229-0.419C5.021,9.104,5.146,9.151,5.267,9.18c0.42-0.308-0.395,0.082,0.064-0.325    C5.699,8.622,5.9,8.386,6.234,7.985C6.498,7.828,6.252,8.089,6.363,8.05L6.49,7.786c0.051-0.04,0.059,0.001,0.063,0.021    C6.695,7.627,6.47,7.683,6.713,7.423C6.679,7.239,7.416,7.125,7.625,6.696C7.732,6.655,7.645,6.8,7.708,6.819    c0.322-0.436,0.328-0.424,0.5-0.726c0.027-0.026,0.057-0.058,0.084-0.085L6.173,3.89C6.166,3.903,6.156,3.92,6.15,3.932    C6.144,3.877,6.076,3.893,6.091,3.808l-0.01-0.011c-0.049,0.085-0.1,0.175-0.09,0.212c-0.045,0.077-0.086,0.16-0.174,0.267    C5.785,4.177,5.707,4.125,5.873,3.88c0,0-0.094,0.139-0.187,0.277C5.594,4.299,5.507,4.442,5.507,4.442    C5.48,4.446,5.408,4.49,5.343,4.524l0.049-0.075L5.308,4.52L5.31,4.542c-0.051,0.024-0.088,0.035-0.074,0    c-0.141,0.121-0.253,0.32-0.378,0.53C4.736,5.283,4.609,5.509,4.428,5.675c-0.002,0.03-0.021,0.081-0.075,0.169    c-0.172,0.191-0.352,0.36-0.516,0.562L3.828,6.394L3.792,6.461C3.747,6.519,3.703,6.579,3.661,6.646L3.61,6.657    C3.526,6.755,3.538,6.776,3.579,6.78C3.549,6.835,3.52,6.89,3.492,6.95L3.339,7.024C3.338,6.981,3.319,6.946,3.282,6.92    c0.025-0.021,0.025-0.041-0.026-0.077C3.242,6.854,3.23,6.868,3.215,6.883c-0.103-0.04-0.254-0.046-0.396-0.021    c0.022,0.033,0.049,0.062-0.121,0.306c0.092-0.031,0.423-0.28,0.445-0.207C3.09,7.019,3.039,7.079,2.985,7.125    c0.05-0.056,0.102-0.093,0.149-0.121c-0.003,0.007-0.005,0.015-0.01,0.022C2.881,7.333,2.875,7.228,2.707,7.325    c0.051-0.008,0.059,0.021,0.045,0.068c-0.011-0.012-0.055,0-0.145,0.035c0.115,0.165-0.281,0.486-0.541,0.768L2.06,8.194v0.011    c-0.136,0.146-0.228,0.28-0.188,0.373L1.823,8.606L1.768,8.655l-0.09,0.047c0.047-0.04,0.042-0.062,0.09-0.102    c-0.115,0.051-0.17,0.104-0.201,0.16C1.534,8.728,1.5,8.692,1.466,8.657c0.011-0.006,0.028-0.02,0.046-0.033    C1.498,8.623,1.479,8.63,1.451,8.644C1.445,8.638,1.439,8.633,1.433,8.627L1.431,8.631c0-0.001-0.031-0.026-0.029-0.026    c0.006,0-0.004-0.012,0.002-0.01c0.015,0.006,0.027,0.004,0.046,0.01c0.032,0.01,0.056,0.016,0.065,0.018    c0-0.001,0.002-0.001,0.002-0.002C1.513,8.619,1.48,8.61,1.445,8.599C1.424,8.593,1.408,8.588,1.394,8.584    C1.39,8.582,1.39,8.582,1.388,8.582L1.385,8.586c0,0-0.007-0.006-0.005-0.005c0.003,0.001,0.005,0.001,0.008,0.001l0.059-0.06    c0,0,0.057,0.057,0.062,0.063C1.518,8.593,1.54,8.589,1.551,8.594C1.543,8.599,1.53,8.608,1.518,8.618    c0,0.001,0.002,0.001,0.002,0.001c0.144-0.093,0.282-0.194,0.285-0.333L1.53,8.421c0.16-0.258,0.312-0.62,0.604-0.846    c-0.217,0.018-0.049,0.07-0.349,0.137c0.304-0.014-0.672,0.65-0.264,0.55C1.379,8.284,1.288,8.339,1.199,8.403l0.357,0.375    C1.534,8.827,1.527,8.879,1.517,8.935C1.467,8.953,1.421,8.973,1.39,8.997c-0.053,0.021,0.033-0.08,0.073-0.143    C1.28,8.969,1.228,9.022,1.226,9.06L1.195,9.045L1.148,9.086L1.24,9.095C1.277,9.14,1.368,9.177,1.207,9.362    C1.158,9.364,1.139,9.327,1.116,9.299l0.022-0.03c-0.01,0.01-0.016,0.019-0.023,0.029C1.084,9.257,1.046,9.233,0.913,9.354    c-0.116,0.047-0.315,0.482-0.581,0.777l-0.001-0.004c-0.001,0.002-0.003,0.007-0.004,0.01C0.241,10.235,0.147,10.315,0.048,10.362    "/>
		<path fill="#2D393A" d="M9.435,4.83C9.408,4.908,9.311,4.975,9.189,5.034C9.251,4.962,9.332,4.89,9.435,4.83"/>
		<path fill="#2D393A" d="M1.51,8.587C1.504,8.581,1.448,8.524,1.448,8.524L1.389,8.585c0.002,0,0.002,0,0.004,0.001    C1.409,8.59,1.426,8.595,1.445,8.601c0.036,0.012,0.069,0.021,0.073,0.021c0.013-0.01,0.025-0.02,0.033-0.024    C1.541,8.589,1.518,8.594,1.51,8.587"/>
		<polygon fill="#2D393A" points="0.666,11.019 0.666,11.019 0.669,11.022   "/>
		<line fill="#2D393A" x1="0.669" y1="11.022" x2="0.669" y2="11.022"/>
		<polygon fill="#2D393A" points="0.669,11.022 0.666,11.019 0.666,11.019   "/>
		<path fill="#2D393A" d="M6.132,3.712C6.117,3.739,6.101,3.771,6.082,3.801l0.012,0.012C6.098,3.788,6.109,3.756,6.132,3.712"/>
		<path fill="#2D393A" d="M1.405,8.595c-0.006-0.002,0.004,0.01-0.002,0.01C1.401,8.603,1.432,8.63,1.432,8.631l0.002-0.004    C1.44,8.633,1.446,8.638,1.452,8.644c0.027-0.015,0.047-0.02,0.061-0.02c0.002-0.001,0.002-0.001,0.004-0.003    c-0.01-0.002-0.033-0.007-0.065-0.019C1.432,8.598,1.42,8.599,1.405,8.595"/>
		<rect x="0.699" y="10.965" fill="#2D393A" width="0.001" height="0.128"/>
		<path fill="#2D393A" d="M8.893,5.553C8.861,5.558,8.84,5.548,8.822,5.538C8.805,5.578,8.82,5.595,8.893,5.553"/>
		<path fill="#2D393A" d="M4.417,5.687l0.012-0.013c0-0.01-0.002-0.019-0.006-0.024L4.417,5.687z"/>
		<path fill="#2D393A" d="M4.219,9.983l0.225-0.067L4.438,9.875C4.38,9.87,4.327,9.907,4.219,9.983"/>
		<path fill="#2D393A" d="M5.523,3.889C5.539,3.925,5.65,3.896,5.695,3.915l0.104-0.16C5.714,3.805,5.57,3.918,5.523,3.889"/>
		<path fill="#2D393A" d="M5.695,3.915L5.539,4.154C5.721,3.984,5.734,3.932,5.695,3.915"/>
	</g>
	<polygon fill="#2D393A" points="4.761,4.635 4.817,4.466 4.704,4.752  "/>
	<g>
		<path fill="#2D393A" d="M3.86,5.498c0.092-0.132,0.216-0.243,0.408-0.356c0.037-0.13-0.193,0.032-0.135-0.084    C4.006,5.201,3.93,5.356,3.86,5.498"/>
		<path fill="#2D393A" d="M3.86,5.498C3.813,5.567,3.77,5.641,3.737,5.726C3.782,5.66,3.819,5.582,3.86,5.498"/>
		<path fill="#2D393A" d="M4.962,4.559l0.147-0.008c0.024-0.022,0.052-0.049,0.079-0.075C5.157,4.476,5.089,4.465,4.962,4.559"/>
		<path fill="#2D393A" d="M5.114,4.551H5.108C5.022,4.633,4.962,4.69,4.936,4.714C4.959,4.694,5.012,4.644,5.114,4.551"/>
		<path fill="#2D393A" d="M5.208,4.457c-0.007,0.007-0.013,0.012-0.02,0.019C5.203,4.475,5.21,4.473,5.208,4.457"/>
		<path fill="#2D393A" d="M5.57,4.176L5.392,4.448l0.227-0.191C5.596,4.243,5.531,4.253,5.57,4.176"/>
		<path fill="#2D393A" d="M3.907,5.765c0.131-0.103,0.262-0.216,0.376-0.331c-0.005-0.039,0.008-0.13-0.119,0.001    C4.106,5.549,4.015,5.647,3.913,5.756c0.004-0.003,0.01-0.008,0.014-0.011C3.921,5.752,3.913,5.758,3.907,5.765"/>
		<path fill="#2D393A" d="M4.632,5.011C4.627,5.02,4.621,5.029,4.616,5.035C4.634,5.03,4.645,5.022,4.632,5.011"/>
	</g>
	<polygon fill="#2D393A" points="2.819,6.862 2.812,6.845 2.79,6.866  "/>
	<g>
		<path fill="#2D393A" d="M4.317,5.427c0.104-0.076,0.141-0.146,0.172-0.219C4.427,5.281,4.36,5.357,4.282,5.434    C4.286,5.452,4.29,5.46,4.317,5.427"/>
		<path fill="#2D393A" d="M3.461,6.063c0.062-0.031,0.128-0.072,0.195-0.115C3.588,5.971,3.46,6.028,3.461,6.063"/>
		<path fill="#2D393A" d="M4.565,5.046C4.569,5.04,4.573,5.035,4.576,5.029C4.532,5.044,4.543,5.047,4.565,5.046"/>
		<path fill="#2D393A" d="M4.565,5.046c-0.037,0.057-0.056,0.11-0.078,0.162c0.051-0.06,0.095-0.119,0.129-0.173    C4.6,5.042,4.581,5.046,4.565,5.046"/>
		<path fill="#2D393A" d="M3.223,6.476l0.078-0.093C3.192,6.469,3.096,6.512,2.917,6.588C2.806,6.76,2.8,6.813,2.813,6.845    l0.43-0.406L3.223,6.476z"/>
		<path fill="#2D393A" d="M3.669,6.022C3.573,6.092,3.653,6.001,3.68,5.96C3.678,5.955,3.677,5.946,3.674,5.942H3.671L3.302,6.384    C3.394,6.312,3.497,6.206,3.669,6.022"/>
		<path fill="#2D393A" d="M3.711,5.993c0.002,0.001,0.003,0.002,0.005,0.003C3.71,6.001,3.705,6.003,3.698,6.009    C3.702,6.003,3.706,5.998,3.711,5.993 M3.716,6.327c0.247-0.256,0.145-0.262,0.266-0.44c-0.379,0.406,0-0.073-0.205,0.05    L3.771,5.931c-0.008-0.008,0.076-0.1,0.137-0.165C3.906,5.769,3.902,5.771,3.9,5.772c0.004-0.004,0.01-0.01,0.015-0.016    C3.845,5.815,3.773,5.91,3.711,5.96c-0.004,0.001-0.006,0.002-0.01,0.004c0,0.002-0.012,0-0.014,0.002c0.002,0.004,0,0.01,0,0.014    c0.002,0.008,0.004,0.018,0.004,0.027C3.689,6.008,3.687,6.009,3.687,6.01C3.684,6.147,3.516,6.374,3.716,6.327"/>
		<path fill="#2D393A" d="M3.907,5.765c0.006-0.007,0.014-0.014,0.02-0.02c-0.004,0.003-0.01,0.008-0.014,0.011    C3.908,5.761,3.904,5.767,3.898,5.772C3.901,5.771,3.904,5.767,3.907,5.765"/>
		<path fill="#2D393A" d="M3.686,6.003c-0.007,0.008-0.012,0.013-0.018,0.02c0.006-0.004,0.01-0.007,0.017-0.012    C3.685,6.007,3.686,6.005,3.686,6.003"/>
	</g>
	<polygon fill="#2D393A" points="2.716,6.87 2.686,6.75 2.594,7.048  "/>
	<polygon fill="#2D393A" points="2.284,7.313 2.236,7.231 2.159,7.386  "/>
	<g>
		<path fill="#2D393A" d="M0.645,11.075l0.015,0.016V11.09C0.655,11.085,0.651,11.08,0.645,11.075L0.645,11.075"/>
		<polyline fill="#2D393A" points="0.645,11.075 0.645,11.075 0.632,11.062 0.645,11.075   "/>
		<path fill="#2D393A" d="M0.647,11.073c-0.006-0.004-0.011-0.01-0.015-0.014c-0.001,0-0.001,0-0.001,0    C0.636,11.065,0.641,11.069,0.647,11.073L0.647,11.073"/>
		<polyline fill="#2D393A" points="1.524,8.625 1.523,8.625 1.522,8.625 1.524,8.625   "/>
		<path fill="#2D393A" d="M0.661,11.089c0.02,0.021,0.041,0.043,0.061,0.063c0.001,0,0.001-0.002,0.001-0.002    C0.702,11.13,0.681,11.108,0.661,11.089L0.661,11.089z"/>
		<path fill="#2D393A" d="M1.394,8.063L1.231,8.261C1.325,8.16,1.377,8.144,1.439,8.106C1.419,8.095,1.37,8.101,1.394,8.063"/>
		<path fill="#2D393A" d="M1.862,8.12c0.082,0.052,0.186-0.098,0.315-0.248C2.169,7.88,2.16,7.889,2.153,7.896    C2.101,7.761,1.981,7.94,1.862,8.12"/>
		<path fill="#2D393A" d="M2.338,7.705C2.317,7.651,2.276,7.75,2.209,7.837C2.249,7.79,2.292,7.744,2.338,7.705"/>
	</g>
</g>
</svg>